<?xml version="1.0" encoding="UTF-8"?>
<svg width="378px" height="154px" viewBox="0 0 378 154" version="1.1" xmlns="http://www.w3.org/2000/svg" xmlns:xlink="http://www.w3.org/1999/xlink">
    <!-- Generator: Sketch 52.5 (67469) - http://www.bohemiancoding.com/sketch -->
    <title>Logo</title>
    <desc>Created with Sketch.</desc>
    <defs>
        <polygon id="path-1" points="0.0190129568 0.131404918 14.079787 0.131404918 14.079787 22.7213115 0.0190129568 22.7213115"></polygon>
        <polygon id="path-3" points="1.14291794 0.71105082 12.7978605 0.71105082 12.7978605 7.0035918 1.14291794 7.0035918"></polygon>
    </defs>
    <g id="Global_Objects" stroke="none" stroke-width="1" fill="none" fill-rule="evenodd">
        <g id="Footer" transform="translate(-198.000000, -99.000000)">
            <g id="Logo">
                <g transform="translate(198.000000, 99.000000)">
                    <path d="M91.1925625,146.392021 C91.0616123,146.260743 90.9973963,146.095382 90.9973963,145.894677 L90.9973963,125.894874 C90.9973963,125.67271 91.0616123,125.5023 91.1925625,125.382382 C91.3235126,125.262464 91.4884595,125.201874 91.6886621,125.201874 L93.0107551,125.201874 C93.2109578,125.201874 93.3759047,125.267513 93.5068548,125.39753 C93.6365458,125.528808 93.7020209,125.694169 93.7020209,125.894874 L93.7020209,145.894677 C93.7020209,146.095382 93.6365458,146.260743 93.5068548,146.392021 C93.3759047,146.5233 93.2109578,146.587677 93.0107551,146.587677 L91.6886621,146.587677 C91.4884595,146.587677 91.3235126,146.5233 91.1925625,146.392021" id="Fill-1" fill="#01A68A"></path>
                    <path d="M108.339605,137.641666 L108.339605,137.55078 C108.339605,136.145846 107.959346,135.000944 107.197569,134.117338 C106.43705,133.233731 105.414632,132.791928 104.132831,132.791928 C102.830884,132.791928 101.808466,133.233731 101.069353,134.117338 C100.327722,135.000944 99.9575355,136.145846 99.9575355,137.55078 L99.9575355,137.641666 L108.339605,137.641666 Z M99.2360505,144.9756 C98.0134292,143.700682 97.3435688,141.958715 97.2226917,139.749698 L97.1924724,138.725977 L97.2226917,137.732551 C97.3435688,135.563928 98.0134292,133.835846 99.2360505,132.55083 C100.457413,131.267075 102.090512,130.623305 104.132831,130.623305 C106.33632,130.623305 108.043708,131.326403 109.256256,132.731338 C110.467546,134.137534 111.074449,136.044862 111.074449,138.454584 L111.074449,138.99737 C111.074449,139.198075 111.008974,139.363436 110.879283,139.493452 C110.748333,139.624731 110.582127,139.689108 110.383183,139.689108 L99.9575355,139.689108 L99.9575355,139.960502 C100.016715,141.266977 100.41712,142.380321 101.158751,143.304321 C101.899124,144.228321 102.88125,144.689059 104.102612,144.689059 C105.044446,144.689059 105.81126,144.504764 106.401795,144.132387 C106.99233,143.761272 107.438064,143.37501 107.738997,142.972338 C107.919054,142.732502 108.058818,142.586075 108.159549,142.535584 C108.259021,142.486354 108.430263,142.461108 108.670758,142.461108 L109.991592,142.461108 C110.172908,142.461108 110.327781,142.5116 110.458732,142.611321 C110.588423,142.712305 110.652639,142.842321 110.652639,143.003895 C110.652639,143.445698 110.383183,143.977125 109.841755,144.599436 C109.301585,145.221748 108.534771,145.759485 107.543831,146.211387 C106.551632,146.662026 105.414632,146.887977 104.132831,146.887977 C102.090512,146.887977 100.457413,146.25178 99.2360505,144.9756 Z" id="Fill-3" fill="#01A68A"></path>
                    <path d="M114.654425,146.392021 C114.523475,146.260743 114.459259,146.095382 114.459259,145.894677 L114.459259,131.616857 C114.459259,131.417415 114.523475,131.250792 114.654425,131.119513 C114.785375,130.989497 114.949063,130.92512 115.150525,130.92512 L116.442399,130.92512 C116.662748,130.92512 116.832731,130.984448 116.952349,131.105628 C117.073226,131.225546 117.133664,131.397218 117.133664,131.616857 L117.133664,132.942267 C117.734272,132.200038 118.430575,131.626956 119.221312,131.225546 C120.01205,130.824136 120.999213,130.623431 122.181542,130.623431 C124.104243,130.623431 125.59506,131.240693 126.657771,132.475218 C127.719223,133.711005 128.250578,135.343152 128.250578,137.370398 L128.250578,145.894677 C128.250578,146.095382 128.185103,146.260743 128.055412,146.392021 C127.924462,146.5233 127.758256,146.587677 127.559312,146.587677 L126.176781,146.587677 C125.976578,146.587677 125.810372,146.5233 125.680681,146.392021 C125.55099,146.260743 125.485515,146.095382 125.485515,145.894677 L125.485515,137.550907 C125.485515,136.105579 125.135475,134.980874 124.434136,134.176792 C123.732797,133.373972 122.731784,132.972562 121.429837,132.972562 C120.148037,132.972562 119.125618,133.379021 118.3651,134.193202 C117.603322,135.00612 117.223063,136.125775 117.223063,137.550907 L117.223063,145.894677 C117.223063,146.095382 117.157588,146.260743 117.027897,146.392021 C116.898206,146.5233 116.732,146.587677 116.531797,146.587677 L115.150525,146.587677 C114.949063,146.587677 114.785375,146.5233 114.654425,146.392021" id="Fill-5" fill="#01A68A"></path>
                    <path d="M141.761487,143.13833 C142.462826,142.205493 142.843085,141.095936 142.903524,139.809657 C142.922411,139.588756 142.933743,139.207543 142.933743,138.666018 C142.933743,138.104297 142.922411,137.711723 142.903524,137.490821 C142.863232,136.266395 142.476677,135.20733 141.746378,134.312362 C141.01482,133.41992 139.968477,132.973067 138.606092,132.973067 C137.164381,132.973067 136.113002,133.424969 135.451956,134.328772 C134.790909,135.231313 134.430796,136.416608 134.370358,137.882133 L134.340139,138.755641 C134.340139,142.611952 135.761703,144.538215 138.606092,144.538215 C140.00877,144.538215 141.060149,144.072428 141.761487,143.13833 M133.303869,144.841166 C132.252491,143.475362 131.685879,141.74728 131.606554,139.659444 L131.576335,138.755641 L131.606554,137.851838 C131.685879,135.784198 132.256268,134.062428 133.318979,132.686526 C134.380431,131.311887 135.953092,130.622674 138.035703,130.622674 C140.118315,130.622674 141.741341,131.366166 142.903524,132.851887 L142.903524,125.894116 C142.903524,125.693411 142.96774,125.528051 143.09869,125.398034 C143.228381,125.266756 143.393328,125.202379 143.59479,125.202379 L144.945843,125.202379 C145.146046,125.202379 145.310992,125.266756 145.441943,125.398034 C145.571634,125.528051 145.637109,125.693411 145.637109,125.894116 L145.637109,145.895182 C145.637109,146.095887 145.571634,146.261248 145.441943,146.392526 C145.310992,146.522543 145.146046,146.58692 144.945843,146.58692 L143.653969,146.58692 C143.453766,146.58692 143.293856,146.522543 143.174238,146.392526 C143.053361,146.261248 142.994182,146.095887 142.994182,145.895182 L142.994182,144.600067 C141.850886,146.126182 140.198899,146.888608 138.035703,146.888608 C135.932946,146.888608 134.355248,146.205707 133.303869,144.841166" id="Fill-7" fill="#01A68A"></path>
                    <path d="M149.987676,146.392021 C149.856726,146.260743 149.79251,146.095382 149.79251,145.894677 L149.79251,131.616857 C149.79251,131.417415 149.856726,131.250792 149.987676,131.119513 C150.117367,130.989497 150.282314,130.92512 150.482517,130.92512 L151.80461,130.92512 C152.004812,130.92512 152.169759,130.989497 152.300709,131.119513 C152.4304,131.250792 152.495875,131.417415 152.495875,131.616857 L152.495875,145.894677 C152.495875,146.095382 152.4304,146.260743 152.300709,146.392021 C152.169759,146.5233 152.004812,146.587677 151.80461,146.587677 L150.482517,146.587677 C150.282314,146.587677 150.117367,146.5233 149.987676,146.392021 M149.747181,127.776956 C149.616231,127.645677 149.550756,127.481579 149.550756,127.279611 L149.550756,125.714366 C149.550756,125.512398 149.616231,125.341989 149.747181,125.201874 C149.876872,125.061759 150.041819,124.989808 150.243281,124.989808 L152.014885,124.989808 C152.215088,124.989808 152.385071,125.061759 152.526095,125.201874 C152.665859,125.341989 152.73637,125.512398 152.73637,125.714366 L152.73637,127.279611 C152.73637,127.481579 152.665859,127.645677 152.526095,127.776956 C152.385071,127.906972 152.215088,127.972611 152.014885,127.972611 L150.243281,127.972611 C150.041819,127.972611 149.876872,127.906972 149.747181,127.776956" id="Fill-9" fill="#01A68A"></path>
                    <path d="M156.846569,146.392021 C156.715619,146.260743 156.651403,146.095382 156.651403,145.894677 L156.651403,131.616857 C156.651403,131.417415 156.715619,131.250792 156.846569,131.119513 C156.977519,130.989497 157.141207,130.92512 157.342668,130.92512 L158.634542,130.92512 C158.854891,130.92512 159.024874,130.984448 159.144492,131.105628 C159.265369,131.225546 159.325808,131.397218 159.325808,131.616857 L159.325808,132.942267 C159.926416,132.200038 160.622718,131.626956 161.413456,131.225546 C162.204193,130.824136 163.191356,130.623431 164.373685,130.623431 C166.296386,130.623431 167.787203,131.240693 168.849914,132.475218 C169.911366,133.711005 170.442722,135.343152 170.442722,137.370398 L170.442722,145.894677 C170.442722,146.095382 170.377247,146.260743 170.247555,146.392021 C170.116605,146.5233 169.950399,146.587677 169.751456,146.587677 L168.368924,146.587677 C168.168722,146.587677 168.002516,146.5233 167.872825,146.392021 C167.743134,146.260743 167.677658,146.095382 167.677658,145.894677 L167.677658,137.550907 C167.677658,136.105579 167.327619,134.980874 166.62628,134.176792 C165.924941,133.373972 164.923928,132.972562 163.621981,132.972562 C162.34018,132.972562 161.317761,133.379021 160.557243,134.193202 C159.795466,135.00612 159.415207,136.125775 159.415207,137.550907 L159.415207,145.894677 C159.415207,146.095382 159.349732,146.260743 159.220041,146.392021 C159.09035,146.5233 158.924144,146.587677 158.723941,146.587677 L157.342668,146.587677 C157.141207,146.587677 156.977519,146.5233 156.846569,146.392021" id="Fill-11" fill="#01A68A"></path>
                    <g id="Group-15" transform="translate(173.760797, 130.492279)">
                        <mask id="mask-2" fill="white">
                            <use xlink:href="#path-1"></use>
                        </mask>
                        <g id="Clip-14"></g>
                        <path d="M10.1890561,12.5258803 C10.9004681,11.6119787 11.2857638,10.5125197 11.3462023,9.22750328 C11.3663485,9.04699508 11.3751625,8.69607705 11.3751625,8.17348689 C11.3751625,7.67109344 11.3663485,7.33027377 11.3462023,7.14976557 C11.2857638,5.86474918 10.9004681,4.76529016 10.1890561,3.85138852 C9.47764419,2.93748689 8.4212289,2.48053607 7.0198103,2.48053607 C5.5768402,2.48053607 4.53049801,2.93748689 3.87952458,3.85138852 C3.22855116,4.76529016 2.87347475,5.94427377 2.81303621,7.39086393 L2.78281694,8.17348689 L2.81303621,8.98640492 C2.87347475,10.4329951 3.22855116,11.6119787 3.87952458,12.5258803 C4.53049801,13.439782 5.5768402,13.8954705 7.0198103,13.8954705 C8.4212289,13.8954705 9.47764419,13.439782 10.1890561,12.5258803 M3.0837505,21.8782246 C2.08147807,21.315241 1.37510266,20.6739951 0.965883389,19.9507 C0.554145847,19.2274049 0.350165781,18.6050934 0.350165781,18.0825033 C0.350165781,17.9019951 0.419418272,17.7467328 0.560441528,17.6167164 C0.700205648,17.4854377 0.860115947,17.4197984 1.04017243,17.4197984 L2.36226545,17.4197984 C2.54232193,17.4197984 2.69341827,17.465241 2.81303621,17.5561262 C2.93391329,17.6470115 3.03338505,17.8111098 3.11396977,18.0522082 C3.67428538,19.6591098 4.94601296,20.4631918 6.92915249,20.4631918 C8.43130199,20.4631918 9.54311927,20.1413066 10.2646043,19.4987984 C10.9848302,18.8562902 11.3462023,17.7214869 11.3462023,16.0956508 L11.3462023,14.0166508 C10.1840196,15.5023721 8.56225216,16.2458639 6.47838173,16.2458639 C4.35547807,16.2458639 2.76770731,15.5629623 1.71632857,14.197159 C0.664949834,12.832618 0.109670764,11.1057984 0.0492322259,9.0167 L0.0190129568,8.17348689 L0.0492322259,7.35930656 C0.109670764,5.29292951 0.664949834,3.56989672 1.71632857,2.19399508 C2.76770731,0.819355738 4.35547807,0.131404918 6.47838173,0.131404918 C8.58239834,0.131404918 10.224312,0.903929508 11.4066409,2.45024098 L11.4066409,1.15512623 C11.4066409,0.954421311 11.4708568,0.784011475 11.601807,0.642634426 C11.731498,0.503781967 11.8964449,0.431831148 12.0979066,0.431831148 L13.3897804,0.431831148 C13.5887239,0.431831148 13.7549299,0.503781967 13.8858801,0.642634426 C14.0155711,0.784011475 14.079787,0.954421311 14.079787,1.15512623 L14.079787,15.7636672 C14.079787,20.4026016 11.7466076,22.7214377 7.08024884,22.7214377 C5.4169299,22.7214377 4.08476379,22.4399459 3.0837505,21.8782246" id="Fill-13" fill="#01A68A" mask="url(#mask-2)"></path>
                    </g>
                    <path d="M201.120442,141.316333 L201.120442,133.243956 L198.74697,133.243956 C198.546768,133.243956 198.386857,133.183366 198.26598,133.063448 C198.146362,132.942267 198.084665,132.781956 198.084665,132.581251 L198.084665,131.616857 C198.084665,131.417415 198.146362,131.250792 198.26598,131.119513 C198.386857,130.989497 198.546768,130.92512 198.74697,130.92512 L201.120442,130.92512 L201.120442,125.894874 C201.120442,125.694169 201.179622,125.528808 201.300499,125.39753 C201.420117,125.267513 201.580027,125.201874 201.781489,125.201874 L203.103582,125.201874 C203.302525,125.201874 203.468731,125.267513 203.598422,125.39753 C203.729372,125.528808 203.794848,125.694169 203.794848,125.894874 L203.794848,130.92512 L207.519372,130.92512 C207.719575,130.92512 207.885781,130.989497 208.015472,131.119513 C208.146422,131.250792 208.210638,131.417415 208.210638,131.616857 L208.210638,132.581251 C208.210638,132.781956 208.146422,132.942267 208.015472,133.063448 C207.885781,133.183366 207.719575,133.243956 207.519372,133.243956 L203.794848,133.243956 L203.794848,141.10553 C203.794848,142.129251 203.958535,142.903038 204.289688,143.424366 C204.619582,143.946956 205.186193,144.208251 205.987004,144.208251 L207.820306,144.208251 C208.020509,144.208251 208.180419,144.272628 208.301296,144.402644 C208.420914,144.533923 208.481352,144.700546 208.481352,144.899989 L208.481352,145.894677 C208.481352,146.095382 208.420914,146.260743 208.301296,146.392021 C208.180419,146.5233 208.020509,146.587677 207.820306,146.587677 L205.776728,146.587677 C202.671698,146.587677 201.120442,144.830562 201.120442,141.316333" id="Fill-16" fill="#01A68A"></path>
                    <path d="M211.518137,146.392021 C211.387187,146.260743 211.322971,146.095382 211.322971,145.894677 L211.322971,125.894874 C211.322971,125.67271 211.387187,125.5023 211.518137,125.382382 C211.647828,125.262464 211.814034,125.201874 212.014237,125.201874 L213.395509,125.201874 C213.615858,125.201874 213.785842,125.262464 213.906719,125.382382 C214.027596,125.5023 214.088034,125.67271 214.088034,125.894874 L214.088034,132.911972 C214.667237,132.169743 215.353466,131.602972 216.145463,131.210398 C216.9362,130.819087 217.91329,130.623431 219.074214,130.623431 C220.996915,130.623431 222.494028,131.240693 223.566812,132.475218 C224.637077,133.711005 225.173469,135.343152 225.173469,137.370398 L225.173469,145.894677 C225.173469,146.095382 225.107994,146.260743 224.978303,146.392021 C224.847353,146.5233 224.682406,146.587677 224.482204,146.587677 L223.070712,146.587677 C222.870509,146.587677 222.705562,146.5233 222.574612,146.392021 C222.443662,146.260743 222.379446,146.095382 222.379446,145.894677 L222.379446,137.550907 C222.379446,136.105579 222.029406,134.980874 221.328067,134.176792 C220.626729,133.373972 219.615642,132.972562 218.293549,132.972562 C217.010489,132.972562 215.98933,133.379021 215.228812,134.193202 C214.467034,135.00612 214.088034,136.125775 214.088034,137.550907 L214.088034,145.894677 C214.088034,146.095382 214.0213,146.260743 213.891609,146.392021 C213.761918,146.5233 213.595712,146.587677 213.395509,146.587677 L212.014237,146.587677 C211.814034,146.587677 211.647828,146.5233 211.518137,146.392021" id="Fill-18" fill="#01A68A"></path>
                    <path d="M237.429398,143.394702 C238.270501,142.531292 238.691052,141.27657 238.691052,139.629275 L238.691052,138.786062 L235.175544,139.297292 C233.732574,139.499259 232.642162,139.840079 231.900531,140.322275 C231.160158,140.804472 230.789972,141.406587 230.789972,142.129882 C230.789972,142.952898 231.124903,143.585308 231.796022,144.027111 C232.467142,144.468915 233.262916,144.689816 234.184604,144.689816 C235.506697,144.689816 236.588295,144.258111 237.429398,143.394702 M230.864261,146.28662 C230.031972,145.88521 229.372185,145.337374 228.881122,144.644374 C228.390059,143.951374 228.144527,143.183898 228.144527,142.340685 C228.144527,141.015275 228.685956,139.930964 229.767554,139.087751 C230.849152,138.243275 232.321082,137.681554 234.184604,137.400062 L238.691052,136.767652 L238.691052,135.895407 C238.691052,133.826505 237.499909,132.792685 235.116364,132.792685 C234.194677,132.792685 233.453046,132.978243 232.891471,133.349357 C232.331155,133.720472 231.920677,134.158489 231.660036,134.65962 C231.579451,134.860325 231.495089,134.99539 231.40569,135.066079 C231.315032,135.136767 231.189119,135.170849 231.029208,135.170849 L229.858212,135.170849 C229.676896,135.170849 229.522022,135.106472 229.392331,134.976456 C229.261381,134.845177 229.197165,134.689915 229.197165,134.508144 C229.197165,134.047407 229.411218,133.509669 229.843102,132.897456 C230.272467,132.285243 230.93981,131.752554 231.841351,131.300652 C232.741634,130.850013 233.843378,130.6228 235.145325,130.6228 C237.389105,130.6228 238.995763,131.14539 239.967816,132.189308 C240.939869,133.234489 241.424637,134.538439 241.424637,136.104948 L241.424637,145.894046 C241.424637,146.096013 241.360421,146.261374 241.23073,146.392652 C241.09978,146.522669 240.933574,146.587046 240.73463,146.587046 L239.412537,146.587046 C239.212335,146.587046 239.052424,146.522669 238.931547,146.392652 C238.81067,146.261374 238.751491,146.096013 238.751491,145.894046 L238.751491,144.569898 C238.310793,145.232603 237.668634,145.784226 236.827531,146.22603 C235.986428,146.66657 234.90483,146.888734 233.582737,146.888734 C232.601869,146.888734 231.695291,146.686767 230.864261,146.28662" id="Fill-20" fill="#01A68A"></path>
                    <path d="M246.830486,141.316333 L246.830486,133.243956 L244.455755,133.243956 C244.255553,133.243956 244.095643,133.183366 243.976025,133.063448 C243.855148,132.942267 243.794709,132.781956 243.794709,132.581251 L243.794709,131.616857 C243.794709,131.417415 243.855148,131.250792 243.976025,131.119513 C244.095643,130.989497 244.255553,130.92512 244.455755,130.92512 L246.830486,130.92512 L246.830486,125.894874 C246.830486,125.694169 246.889666,125.528808 247.010543,125.39753 C247.130161,125.267513 247.290071,125.201874 247.491533,125.201874 L248.813626,125.201874 C249.012569,125.201874 249.177516,125.267513 249.308466,125.39753 C249.439417,125.528808 249.504892,125.694169 249.504892,125.894874 L249.504892,130.92512 L253.229417,130.92512 C253.429619,130.92512 253.594566,130.989497 253.725516,131.119513 C253.855207,131.250792 253.920682,131.417415 253.920682,131.616857 L253.920682,132.581251 C253.920682,132.781956 253.855207,132.942267 253.725516,133.063448 C253.594566,133.183366 253.429619,133.243956 253.229417,133.243956 L249.504892,133.243956 L249.504892,141.10553 C249.504892,142.129251 249.668579,142.903038 249.999732,143.424366 C250.329626,143.946956 250.896237,144.208251 251.697048,144.208251 L253.53035,144.208251 C253.729294,144.208251 253.890463,144.272628 254.01134,144.402644 C254.130958,144.533923 254.191397,144.700546 254.191397,144.899989 L254.191397,145.894677 C254.191397,146.095382 254.130958,146.260743 254.01134,146.392021 C253.890463,146.5233 253.729294,146.587677 253.53035,146.587677 L251.486772,146.587677 C248.381742,146.587677 246.830486,144.830562 246.830486,141.316333" id="Fill-22" fill="#01A68A"></path>
                    <path d="M268.040888,146.40679 C267.899864,146.28561 267.79032,146.095003 267.710994,145.833708 L263.443781,131.858839 L263.383343,131.557151 C263.383343,131.376643 263.443781,131.22643 263.563399,131.105249 C263.684276,130.985331 263.834114,130.924741 264.01417,130.924741 L265.246864,130.924741 C265.445808,130.924741 265.612014,130.980282 265.742964,131.090102 C265.872655,131.201184 265.946944,131.305954 265.96835,131.406938 L269.362981,142.912757 L272.967888,131.557151 C273.00818,131.396839 273.098838,131.250413 273.238602,131.120397 C273.378366,130.99038 273.568496,130.924741 273.808991,130.924741 L274.770971,130.924741 C275.011466,130.924741 275.201595,130.99038 275.341359,131.120397 C275.482383,131.250413 275.571781,131.396839 275.612074,131.557151 L279.216981,142.912757 L282.612871,131.406938 C282.631758,131.305954 282.707306,131.201184 282.838256,131.090102 C282.967948,130.980282 283.132894,130.924741 283.334356,130.924741 L284.565791,130.924741 C284.745848,130.924741 284.895685,130.985331 285.016562,131.105249 C285.13618,131.22643 285.196619,131.376643 285.196619,131.557151 L285.13618,131.858839 L280.870227,145.833708 C280.789642,146.095003 280.680097,146.28561 280.540333,146.40679 C280.39931,146.526708 280.189034,146.587298 279.908247,146.587298 L278.826649,146.587298 C278.305366,146.587298 277.965399,146.336102 277.805489,145.833708 L274.289981,134.930003 L270.774472,145.833708 C270.613303,146.336102 270.273336,146.587298 269.753313,146.587298 L268.671715,146.587298 C268.390928,146.587298 268.180652,146.526708 268.040888,146.40679" id="Fill-24" fill="#01A68A"></path>
                    <path d="M297.322604,143.40947 C298.074308,142.596552 298.47975,141.426405 298.53893,139.90029 C298.559076,139.700848 298.569149,139.318372 298.569149,138.755389 C298.569149,138.193667 298.559076,137.812454 298.53893,137.611749 C298.47975,136.085634 298.074308,134.915487 297.322604,134.102569 C296.572159,133.288389 295.554777,132.883192 294.272976,132.883192 C292.991175,132.883192 291.975052,133.288389 291.223348,134.102569 C290.472903,134.915487 290.067461,136.085634 290.007023,137.611749 L289.976803,138.755389 L290.007023,139.90029 C290.067461,141.426405 290.472903,142.596552 291.223348,143.40947 C291.975052,144.223651 292.991175,144.628848 294.272976,144.628848 C295.554777,144.628848 296.572159,144.223651 297.322604,143.40947 M289.181029,145.021421 C287.988627,143.776798 287.352763,142.119405 287.273438,140.050503 L287.243219,138.755389 L287.273438,137.460274 C287.352763,135.392634 287.9987,133.735241 289.211249,132.490618 C290.422538,131.245995 292.10978,130.623684 294.272976,130.623684 C296.436172,130.623684 298.123415,131.245995 299.335963,132.490618 C300.547252,133.735241 301.193189,135.392634 301.273773,137.460274 C301.314066,137.902077 301.334212,138.333782 301.334212,138.755389 C301.334212,139.176995 301.314066,139.609962 301.273773,140.050503 C301.193189,142.119405 300.557325,143.776798 299.366182,145.021421 C298.17378,146.266044 296.476464,146.888356 294.272976,146.888356 C292.069488,146.888356 290.372172,146.266044 289.181029,145.021421" id="Fill-26" fill="#01A68A"></path>
                    <path d="M305.016934,146.392021 C304.885983,146.260743 304.821767,146.095382 304.821767,145.894677 L304.821767,131.647152 C304.821767,131.44771 304.885983,131.276038 305.016934,131.135923 C305.146625,130.995808 305.311571,130.92512 305.513033,130.92512 L306.774688,130.92512 C306.995037,130.92512 307.170056,130.989497 307.299748,131.119513 C307.430698,131.250792 307.496173,131.427513 307.496173,131.647152 L307.496173,132.972562 C308.31713,131.608021 309.708475,130.92512 311.672728,130.92512 L312.843724,130.92512 C313.064073,130.92512 313.234056,130.984448 313.354934,131.105628 C313.474551,131.225546 313.53499,131.397218 313.53499,131.616857 L313.53499,132.731464 C313.53499,132.932169 313.474551,133.098792 313.354934,133.228808 C313.234056,133.360087 313.064073,133.424464 312.843724,133.424464 L311.13004,133.424464 C310.028296,133.424464 309.16201,133.746349 308.532442,134.388857 C307.901615,135.031366 307.585571,135.904874 307.585571,137.00812 L307.585571,145.894677 C307.585571,146.095382 307.51506,146.260743 307.375296,146.392021 C307.235532,146.5233 307.064289,146.587677 306.864086,146.587677 L305.513033,146.587677 C305.311571,146.587677 305.146625,146.5233 305.016934,146.392021" id="Fill-28" fill="#01A68A"></path>
                    <path d="M316.39474,146.392021 C316.26379,146.260743 316.199574,146.095382 316.199574,145.894677 L316.199574,125.894874 C316.199574,125.67271 316.26379,125.5023 316.39474,125.382382 C316.52569,125.262464 316.690637,125.201874 316.89084,125.201874 L318.182714,125.201874 C318.382916,125.201874 318.547863,125.267513 318.677554,125.39753 C318.808504,125.528808 318.873979,125.694169 318.873979,125.894874 L318.873979,136.406005 L324.882577,131.436349 C325.183511,131.21671 325.393787,131.075333 325.513405,131.014743 C325.634282,130.955415 325.824411,130.92512 326.085052,130.92512 L327.587202,130.92512 C327.767258,130.92512 327.912059,130.980661 328.022863,131.09048 C328.132408,131.2003 328.18781,131.356825 328.18781,131.55753 C328.18781,131.738038 328.077006,131.928644 327.857916,132.129349 L320.8269,137.913185 L328.608361,145.382185 C328.82871,145.603087 328.938255,145.793693 328.938255,145.954005 C328.938255,146.135775 328.882853,146.285989 328.773308,146.407169 C328.663763,146.527087 328.517704,146.587677 328.337647,146.587677 L326.865717,146.587677 C326.566043,146.587677 326.349471,146.557382 326.21978,146.496792 C326.090089,146.437464 325.904996,146.296087 325.664501,146.075185 L318.873979,139.629907 L318.873979,145.894677 C318.873979,146.095382 318.808504,146.260743 318.677554,146.392021 C318.547863,146.5233 318.382916,146.587677 318.182714,146.587677 L316.89084,146.587677 C316.690637,146.587677 316.52569,146.5233 316.39474,146.392021" id="Fill-30" fill="#01A68A"></path>
                    <path d="M333.4029,146.210882 C332.450993,145.75898 331.745877,145.241439 331.285033,144.659521 C330.824189,144.077603 330.593767,143.595407 330.593767,143.212931 C330.593767,143.013489 330.664279,142.856964 330.804043,142.747144 C330.943807,142.636062 331.094904,142.581784 331.254814,142.581784 L332.516468,142.581784 C332.637346,142.581784 332.731781,142.60198 332.802292,142.641111 C332.872804,142.682767 332.967239,142.77239 333.088116,142.912505 C333.54896,143.475489 334.063947,143.917292 334.635595,144.237915 C335.205983,144.558538 335.972797,144.720111 336.933518,144.720111 C338.015116,144.720111 338.881402,144.519407 339.532375,144.116734 C340.183349,143.715325 340.509465,143.133407 340.509465,142.37098 C340.509465,141.868587 340.368442,141.467177 340.088914,141.165489 C339.806867,140.8638 339.342246,140.593669 338.691272,140.35257 C338.040299,140.111472 337.073282,139.850177 335.791482,139.569948 C334.048837,139.188734 332.817402,138.635849 332.095917,137.912554 C331.375691,137.189259 331.014319,136.255161 331.014319,135.111521 C331.014319,134.369292 331.234668,133.649784 331.675365,132.956784 C332.116063,132.265046 332.773332,131.703325 333.643395,131.27162 C334.514718,130.839915 335.552246,130.6228 336.753462,130.6228 C338.015116,130.6228 339.091678,130.833603 339.983146,131.25521 C340.874615,131.676816 341.545734,132.169111 341.996505,132.732095 C342.447276,133.293816 342.672661,133.767177 342.672661,134.147128 C342.672661,134.327636 342.607186,134.479111 342.477495,134.59903 C342.346545,134.72021 342.190412,134.779538 342.010355,134.779538 L340.869578,134.779538 C340.588791,134.779538 340.388588,134.669718 340.26897,134.448816 C339.927744,134.067603 339.643179,133.770964 339.411498,133.560161 C339.182336,133.349357 338.846146,133.168849 338.406708,133.018636 C337.96601,132.867161 337.414508,132.792685 336.753462,132.792685 C335.771336,132.792685 335.02089,132.998439 334.500867,133.409948 C333.978326,133.821456 333.718944,134.369292 333.718944,135.050931 C333.718944,135.472538 333.828488,135.829767 334.048837,136.120095 C334.269186,136.411685 334.689738,136.683079 335.311751,136.933013 C335.931246,137.185472 336.852934,137.441718 338.075555,137.701751 C339.97811,138.104423 341.325385,138.676243 342.116123,139.418472 C342.90686,140.161964 343.303488,141.116259 343.303488,142.280095 C343.303488,143.143505 343.056698,143.926128 342.566894,144.629226 C342.075831,145.332325 341.345532,145.88521 340.373478,146.28662 C339.402684,146.686767 338.245538,146.888734 336.903299,146.888734 C335.522027,146.888734 334.353548,146.662784 333.4029,146.210882" id="Fill-32" fill="#01A68A"></path>
                    <path d="M1.37333987,48.8741721 C1.06107409,48.9827295 0.726143854,48.8123197 0.630449502,48.4954836 L0.0260641196,46.5061066 C-0.0696302326,46.1880082 0.10916711,45.8471885 0.423951163,45.7462049 L68.8063797,23.9602541 C69.1211638,23.8605328 69.4623897,24.0359918 69.5643797,24.3503033 L69.6147452,24.5080902 C69.7167352,24.8224016 69.5454927,25.1695328 69.2332269,25.2780902 L1.37333987,48.8741721 Z" id="Fill-34" fill="#009A9A"></path>
                    <path d="M70.7045276,40.0209393 C70.6730492,40.3503984 70.3784113,40.5864475 70.0497767,40.5447918 L1.81214884,31.9056443 C1.48351429,31.8652508 1.23420532,31.5610377 1.25686977,31.2315787 C1.27953422,30.9008574 1.56787641,30.6547098 1.89651096,30.6824803 L70.4338133,36.5786607 C70.7624478,36.6064311 71.0067203,36.8992836 70.9739827,37.2300049 L70.7045276,40.0209393 Z" id="Fill-36" fill="#00A59B"></path>
                    <path d="M70.9135442,38.313559 C70.8896206,38.6442803 70.6025375,38.8879033 70.273903,38.8538213 L1.80837143,31.8935262 C1.47973688,31.8607066 1.22916877,31.5628049 1.25309236,31.2320836 L1.36641462,29.6302311 C1.38907907,29.2995098 1.67742126,29.0584115 2.00605581,29.095018 L70.4350724,36.5652803 C70.763707,36.6006246 71.0142751,36.8997885 70.9903515,37.2317721 L70.9135442,38.313559 Z" id="Fill-38" fill="#00A19B"></path>
                    <path d="M28.96731,0.415168852 C28.8690973,0.099595082 28.532908,-0.0733393443 28.2193831,0.0314311475 L25.7426621,0.864545902 C25.4303963,0.970578689 25.260413,1.31392295 25.3674395,1.62697213 L48.7886322,70.8146279 C48.8943997,71.1289393 49.2419213,71.3119721 49.5592236,71.2210869 L50.1661272,71.0494148 C50.4846887,70.9585295 50.6647452,70.6252836 50.5665326,70.3097098 L28.96731,0.415168852 Z" id="Fill-40" fill="#076B6B"></path>
                    <path d="M36.5922611,71.189277 C36.5695967,71.5199984 36.2812545,71.7699328 35.9526199,71.7446869 L33.0591249,71.5250475 C32.7304904,71.4998016 32.4874771,71.2094738 32.5214738,70.8787525 L39.623002,0.801178689 C39.6569987,0.471719672 39.9528957,0.224309836 40.2827894,0.253342623 L40.8531781,0.301309836 C41.1830718,0.329080328 41.4336399,0.623195082 41.4109754,0.952654098 L36.5922611,71.189277 Z" id="Fill-42" fill="#00A59B"></path>
                    <path d="M69.6697694,51.7840148 C69.5237096,52.0819164 69.1648558,52.1980475 68.8727362,52.0427852 L3.211301,17.1920803 C2.9191814,17.036818 2.81089568,16.673277 2.97080598,16.3829492 L3.79428106,14.8896541 C3.95419136,14.5993262 4.32311827,14.4920311 4.6127196,14.6510803 L69.7352445,50.2881951 C70.0248458,50.4472443 70.1419455,50.8208836 69.9971449,51.117523 L69.6697694,51.7840148 Z" id="Fill-44" fill="#61C5BE"></path>
                    <path d="M60.2108864,60.9147 C59.9678731,61.1393885 59.5863548,61.1229787 59.3647468,60.8780934 L14.0937635,11.0919131 C13.8708963,10.8470279 13.8834877,10.4595033 14.1227236,10.2310279 L14.8945741,9.49258525 C15.13381,9.26284754 15.5140691,9.2729459 15.7407136,9.51530656 L61.7470326,58.6766508 C61.9736771,58.9177492 61.9598266,59.2989623 61.7168133,59.5236508 L60.2108864,60.9147 Z" id="Fill-46" fill="#01A488"></path>
                    <path d="M19.1026073,71.5578672 C18.7978963,71.4303754 18.6619096,71.081982 18.8016738,70.7815557 L51.000305,1.76935902 C51.1413282,1.47019508 51.4989229,1.34270328 51.7948199,1.4903918 L53.5462784,2.35506393 C53.8421754,2.50149016 53.9718664,2.86755574 53.8333615,3.16798197 L22.0363947,72.1233754 C21.8978897,72.4238016 21.5339993,72.566441 21.2280292,72.4402115 L19.1026073,71.5578672 Z" id="Fill-48" fill="#2AB7A9"></path>
                    <path d="M11.5724691,61.7547574 C11.3344924,61.9844951 10.9605289,61.9680852 10.7426983,61.7194131 L10.0703196,60.9481508 C9.85248904,60.6994787 9.87011694,60.3081672 10.1093528,60.0796918 L59.4410505,12.9430689 C59.6802864,12.7145934 60.0668412,12.7196426 60.2997814,12.9544295 L60.8563196,13.5148885 C61.0892598,13.7496754 61.0842233,14.1296262 60.8462465,14.3593639 L11.5724691,61.7547574 Z" id="Fill-50" fill="#00A59B"></path>
                    <path d="M35.8458452,34.2395016 L58.8112306,12.3109115 C59.0504664,12.0824361 59.4370213,12.0887475 59.6699615,12.3222721 L61.4466027,14.1084197 C61.6795429,14.3432066 61.6732472,14.7206328 61.431493,14.9465836 L11.5822904,61.7638459 C11.3417953,61.9897967 10.9653136,61.9708623 10.7474831,61.7209279 L9.23777874,59.9915836 C9.01994817,59.7429115 9.03883522,59.3541246 9.28058937,59.1269115 L35.8458452,34.2395016" id="Fill-52" fill="#00A59B"></path>
                    <path d="M90.6189,95.8638639 C89.1154914,94.3440607 88.326013,92.2145689 88.2504648,89.4741262 L88.2126907,87.9669459 L88.2504648,86.4597656 C88.326013,83.7205852 89.1154914,81.5910934 90.6189,80.0700279 C92.1235678,78.5502246 94.214993,77.7890607 96.8982123,77.7890607 C98.7025545,77.7890607 100.226109,78.1096836 101.466358,78.7509295 C102.707867,79.3921754 103.634591,80.1899459 104.24905,81.144241 C104.863508,82.0997984 105.194661,83.0553557 105.245026,84.0083885 C105.270209,84.2356016 105.189624,84.4375689 105.000754,84.6117656 C104.813143,84.7884869 104.606644,84.8755852 104.38,84.8755852 L102.726754,84.8755852 C102.474927,84.8755852 102.287315,84.818782 102.161402,84.7064377 C102.036747,84.5928311 101.910834,84.3858148 101.786179,84.0841262 C101.334149,82.8533885 100.714654,81.9798803 99.9251757,81.4648639 C99.1356973,80.9498475 98.1397206,80.6923393 96.9359864,80.6923393 C95.3570296,80.6923393 94.1029299,81.1821098 93.1762056,82.1629131 C92.2482223,83.1424541 91.747086,84.6370115 91.6715379,86.6478475 L91.6337638,87.9669459 L91.6715379,89.2873066 C91.747086,91.2968803 92.2482223,92.7914377 93.1762056,93.772241 C94.1029299,94.751782 95.3570296,95.2415525 96.9359864,95.2415525 C98.1636442,95.2415525 99.1671757,94.9853066 99.9440628,94.4702902 C100.72095,93.9540115 101.334149,93.0805033 101.786179,91.8497656 C101.910834,91.548077 102.036747,91.3410607 102.161402,91.2274541 C102.287315,91.1151098 102.474927,91.0583066 102.726754,91.0583066 L104.38,91.0583066 C104.606644,91.0583066 104.813143,91.1466672 105.000754,91.3221262 C105.189624,91.4988475 105.270209,91.6982902 105.245026,91.924241 C105.194661,92.8558148 104.863508,93.7974869 104.24905,94.751782 C103.634591,95.7073393 102.707867,96.5114213 101.466358,97.1640279 C100.226109,97.8166344 98.7025545,98.1448311 96.8982123,98.1448311 C94.214993,98.1448311 92.1235678,97.3849295 90.6189,95.8638639" id="Fill-54" fill="#A1A3A6"></path>
                    <path d="M119.607993,93.7719885 C120.660631,92.6914639 121.18695,91.1211689 121.18695,89.0611033 L121.18695,88.0045623 L116.787528,88.6458082 C114.983186,88.8970049 113.617023,89.324923 112.68904,89.9270377 C111.762315,90.5304148 111.297694,91.2840049 111.297694,92.1890705 C111.297694,93.2203656 111.716986,94.0105623 112.558089,94.5634475 C113.396674,95.1163328 114.39391,95.3927754 115.547279,95.3927754 C117.201784,95.3927754 118.555355,94.8525131 119.607993,93.7719885 M111.392129,97.3909885 C110.352083,96.8885951 109.52483,96.2031689 108.910372,95.3359721 C108.295913,94.4700377 107.988684,93.5081689 107.988684,92.4528902 C107.988684,90.7942344 108.666099,89.4372672 110.019671,88.3819885 C111.373242,87.3267098 113.215358,86.6223492 115.547279,86.2714311 L121.18695,85.4787098 L121.18695,84.3855623 C121.18695,81.7978574 119.694873,80.5040049 116.713239,80.5040049 C115.55987,80.5040049 114.631887,80.7362672 113.930548,81.2007918 C113.229209,81.6665787 112.714222,82.2131525 112.389365,82.8405131 C112.288634,83.0929721 112.182867,83.2621197 112.069545,83.349218 C111.956222,83.4375787 111.79883,83.481759 111.598628,83.481759 L110.132993,83.481759 C109.907608,83.481759 109.712442,83.3997098 109.550013,83.2368738 C109.386325,83.0727754 109.305741,82.878382 109.305741,82.6524311 C109.305741,82.0743 109.573937,81.402759 110.114106,80.6352836 C110.653016,79.8690705 111.486564,79.2025787 112.61475,78.6383328 C113.741677,78.0728246 115.120432,77.7888082 116.749754,77.7888082 C119.556368,77.7888082 121.569727,78.442677 122.784794,79.7504148 C124.001119,81.0568902 124.609282,82.6903 124.609282,84.649382 L124.609282,96.901218 C124.609282,97.1524148 124.527438,97.3594311 124.36501,97.5222672 C124.200063,97.6863656 123.993564,97.7684148 123.744255,97.7684148 L122.08975,97.7684148 C121.837923,97.7684148 121.637721,97.6863656 121.487883,97.5222672 C121.338046,97.3594311 121.262498,97.1524148 121.262498,96.901218 L121.262498,95.2425623 C120.709737,96.0718902 119.908927,96.7623656 118.856289,97.3152508 C117.802392,97.8681361 116.450079,98.1445787 114.795574,98.1445787 C113.566657,98.1445787 112.432176,97.893382 111.392129,97.3909885" id="Fill-56" fill="#A1A3A6"></path>
                    <path d="M142.468492,93.5081689 C143.295745,92.3771525 143.747775,90.895218 143.822064,89.0611033 C143.845987,88.8086443 143.859838,88.4451033 143.859838,87.9666934 C143.859838,83.1422016 142.079419,80.7299557 138.5211,80.7299557 C136.765864,80.7299557 135.442512,81.3143984 134.553562,82.4832836 C133.663353,83.6509066 133.193695,85.0268082 133.14333,86.6109885 C133.118147,86.8861689 133.105555,87.3772016 133.105555,88.0803 C133.105555,88.7833984 133.118147,89.2744311 133.14333,89.5508738 C133.193695,91.0833 133.675944,92.4087098 134.591336,93.5271033 C135.505469,94.6454967 136.814971,95.2046934 138.5211,95.2046934 C140.325443,95.2046934 141.64124,94.6391852 142.468492,93.5081689 M129.966529,104.703464 C129.802841,104.553251 129.722256,104.338661 129.722256,104.062218 L129.722256,79.0334311 C129.722256,78.7569885 129.802841,78.5436607 129.966529,78.3934475 C130.128957,78.2419721 130.335456,78.1662344 130.587283,78.1662344 L132.16624,78.1662344 C132.441991,78.1662344 132.654785,78.2419721 132.804622,78.3934475 C132.955718,78.5436607 133.031266,78.7569885 133.031266,79.0334311 L133.031266,80.6920869 C134.48431,78.7569885 136.551811,77.7888082 139.235031,77.7888082 C141.866625,77.7888082 143.840951,78.6244475 145.156748,80.2957262 C146.472546,81.9682672 147.167589,84.097759 147.243137,86.6854639 C147.26832,86.9619066 147.280911,87.3885623 147.280911,87.9666934 C147.280911,88.5448246 147.26832,88.9727426 147.243137,89.247923 C147.167589,91.8116443 146.472546,93.9348246 145.156748,95.6187262 C143.840951,97.3026279 141.866625,98.1445787 139.235031,98.1445787 C136.551811,98.1445787 134.522084,97.1902836 133.14333,95.2791689 L133.14333,104.062218 C133.14333,104.313415 133.061486,104.520431 132.899057,104.68453 C132.736629,104.847366 132.528871,104.929415 132.278303,104.929415 L130.587283,104.929415 C130.335456,104.929415 130.128957,104.853677 129.966529,104.703464" id="Fill-58" fill="#A1A3A6"></path>
                    <path d="M151.886831,97.5225197 C151.724403,97.3596836 151.642559,97.1526672 151.642559,96.9002082 L151.642559,79.0336836 C151.642559,78.7824869 151.724403,78.5754705 151.886831,78.4113721 C152.04926,78.2485361 152.255758,78.1664869 152.507585,78.1664869 L154.16209,78.1664869 C154.411399,78.1664869 154.617898,78.2485361 154.781585,78.4113721 C154.944014,78.5754705 155.027117,78.7824869 155.027117,79.0336836 L155.027117,96.9002082 C155.027117,97.1526672 154.944014,97.3596836 154.781585,97.5225197 C154.617898,97.686618 154.411399,97.7674049 154.16209,97.7674049 L152.507585,97.7674049 C152.255758,97.7674049 152.04926,97.686618 151.886831,97.5225197 M151.585898,74.2268639 C151.42221,74.0652902 151.341625,73.8570115 151.341625,73.6058148 L151.341625,71.6454705 C151.341625,71.3942738 151.42221,71.1809459 151.585898,71.0054869 C151.748326,70.8300279 151.956084,70.7416672 152.206652,70.7416672 L154.42525,70.7416672 C154.674559,70.7416672 154.888612,70.8300279 155.063632,71.0054869 C155.238652,71.1809459 155.326791,71.3942738 155.326791,71.6454705 L155.326791,73.6058148 C155.326791,73.8570115 155.238652,74.0652902 155.063632,74.2268639 C154.888612,74.3909623 154.674559,74.4730115 154.42525,74.4730115 L152.206652,74.4730115 C151.956084,74.4730115 151.748326,74.3909623 151.585898,74.2268639" id="Fill-60" fill="#A1A3A6"></path>
                    <path d="M161.982082,91.1715344 L161.982082,81.0693869 L159.011779,81.0693869 C158.759952,81.0693869 158.55975,80.9936492 158.409912,80.8421738 C158.258816,80.6919607 158.184527,80.4912557 158.184527,80.2387967 L158.184527,79.0333049 C158.184527,78.7833705 158.258816,78.5750918 158.409912,78.4109934 C158.55975,78.2481574 158.759952,78.1661082 159.011779,78.1661082 L161.982082,78.1661082 L161.982082,71.8710426 C161.982082,71.6211082 162.05763,71.4128295 162.207467,71.2499934 C162.358563,71.0858951 162.558766,71.0051082 162.809334,71.0051082 L164.463839,71.0051082 C164.713148,71.0051082 164.920906,71.0858951 165.083334,71.2499934 C165.247022,71.4128295 165.328866,71.6211082 165.328866,71.8710426 L165.328866,78.1661082 L169.990188,78.1661082 C170.240756,78.1661082 170.448514,78.2481574 170.612201,78.4109934 C170.773371,78.5750918 170.855215,78.7833705 170.855215,79.0333049 L170.855215,80.2387967 C170.855215,80.4912557 170.773371,80.6919607 170.612201,80.8421738 C170.448514,80.9936492 170.240756,81.0693869 169.990188,81.0693869 L165.328866,81.0693869 L165.328866,90.9077148 C165.328866,92.1889443 165.535364,93.1571246 165.948361,93.8097311 C166.362617,94.4636 167.070251,94.7892721 168.072524,94.7892721 L170.36667,94.7892721 C170.617238,94.7892721 170.8187,94.8713213 170.968537,95.0354197 C171.118374,95.1982557 171.193922,95.4052721 171.193922,95.6564689 L171.193922,96.9010918 C171.193922,97.1522885 171.118374,97.3593049 170.968537,97.522141 C170.8187,97.6862393 170.617238,97.7682885 170.36667,97.7682885 L167.809364,97.7682885 C163.92367,97.7682885 161.982082,95.5693705 161.982082,91.1715344" id="Fill-62" fill="#A1A3A6"></path>
                    <path d="M184.729511,93.7719885 C185.782149,92.6914639 186.308467,91.1211689 186.308467,89.0611033 L186.308467,88.0045623 L181.909046,88.6458082 C180.104703,88.8970049 178.738541,89.324923 177.810557,89.9270377 C176.883833,90.5304148 176.419212,91.2840049 176.419212,92.1890705 C176.419212,93.2203656 176.838504,94.0105623 177.679607,94.5634475 C178.518192,95.1163328 179.515428,95.3927754 180.667537,95.3927754 C182.323301,95.3927754 183.676873,94.8525131 184.729511,93.7719885 M176.513647,97.3909885 C175.4736,96.8885951 174.646348,96.2031689 174.031889,95.3359721 C173.417431,94.4700377 173.110202,93.5081689 173.110202,92.4528902 C173.110202,90.7942344 173.787617,89.4372672 175.141188,88.3819885 C176.49476,87.3267098 178.336876,86.6223492 180.667537,86.2714311 L186.308467,85.4787098 L186.308467,84.3855623 C186.308467,81.7978574 184.816391,80.5040049 181.834756,80.5040049 C180.681388,80.5040049 179.753404,80.7362672 179.052065,81.2007918 C178.349467,81.6665787 177.83574,82.2131525 177.510883,82.8405131 C177.410152,83.0929721 177.304384,83.2621197 177.191062,83.349218 C177.07774,83.4375787 176.920348,83.481759 176.720145,83.481759 L175.254511,83.481759 C175.027866,83.481759 174.833959,83.3997098 174.671531,83.2368738 C174.507843,83.0727754 174.427258,82.878382 174.427258,82.6524311 C174.427258,82.0743 174.695454,81.402759 175.234364,80.6352836 C175.774534,79.8690705 176.608082,79.2025787 177.736268,78.6383328 C178.863195,78.0728246 180.241949,77.7888082 181.871271,77.7888082 C184.677886,77.7888082 186.691245,78.442677 187.906311,79.7504148 C189.121378,81.0568902 189.7308,82.6903 189.7308,84.649382 L189.7308,96.901218 C189.7308,97.1524148 189.648956,97.3594311 189.485268,97.5222672 C189.32158,97.6863656 189.115082,97.7684148 188.865773,97.7684148 L187.211268,97.7684148 C186.959441,97.7684148 186.759238,97.6863656 186.609401,97.5222672 C186.459564,97.3594311 186.384016,97.1524148 186.384016,96.901218 L186.384016,95.2425623 C185.831255,96.0718902 185.030444,96.7623656 183.977806,97.3152508 C182.923909,97.8681361 181.571597,98.1445787 179.917092,98.1445787 C178.688175,98.1445787 177.553693,97.893382 176.513647,97.3909885" id="Fill-64" fill="#A1A3A6"></path>
                    <path d="M195.087291,97.5225197 C194.924862,97.3596836 194.843019,97.1526672 194.843019,96.9002082 L194.843019,71.8714213 C194.843019,71.5949787 194.924862,71.3816508 195.087291,71.2301754 C195.24972,71.0799623 195.456218,71.0054869 195.708045,71.0054869 L197.36255,71.0054869 C197.613118,71.0054869 197.819617,71.0862738 197.982045,71.2503721 C198.145733,71.4132082 198.227577,71.6202246 198.227577,71.8714213 L198.227577,96.9002082 C198.227577,97.1526672 198.145733,97.3596836 197.982045,97.5225197 C197.819617,97.686618 197.613118,97.7674049 197.36255,97.7674049 L195.708045,97.7674049 C195.456218,97.7674049 195.24972,97.686618 195.087291,97.5225197" id="Fill-66" fill="#A1A3A6"></path>
                    <path d="M214.676429,97.2969475 C213.485286,96.730177 212.602631,96.083882 212.025947,95.3555377 C211.449262,94.6271934 211.16092,94.0238164 211.16092,93.5454066 C211.16092,93.2954721 211.247801,93.0998164 211.42408,92.9609639 C211.5991,92.8246361 211.78797,92.7539475 211.988173,92.7539475 L213.56713,92.7539475 C213.716967,92.7539475 213.836585,92.7791934 213.924724,92.8296852 C214.011605,92.880177 214.131223,92.9925213 214.28106,93.1679803 C214.857744,93.872341 215.503681,94.4264885 216.217611,94.8278984 C216.932801,95.2293082 217.891003,95.4300131 219.094738,95.4300131 C220.44705,95.4300131 221.531166,95.1800787 222.347086,94.676423 C223.160488,94.1740295 223.568449,93.4456852 223.568449,92.4901279 C223.568449,91.8627672 223.393429,91.3591115 223.04213,90.9829475 C222.690831,90.6055213 222.10785,90.2672262 221.293189,89.9655377 C220.478528,89.6638492 219.268498,89.3369148 217.665618,88.9847344 C215.484794,88.5075869 213.943611,87.8171115 213.040811,86.9120459 C212.13801,86.0069803 211.687239,84.8380951 211.687239,83.4066525 C211.687239,82.476341 211.96299,81.5775869 212.514492,80.7103902 C213.065993,79.8444557 213.88695,79.1413574 214.977362,78.5998328 C216.067774,78.0595705 217.364684,77.7894393 218.869352,77.7894393 C220.44705,77.7894393 221.794326,78.053259 222.911179,78.5808984 C224.025515,79.1085377 224.866618,79.7258 225.430711,80.4288984 C225.993545,81.1319967 226.275591,81.7227508 226.275591,82.1998984 C226.275591,82.4258492 226.193748,82.6151934 226.031319,82.7654066 C225.86889,82.9156197 225.673724,82.9913574 225.448339,82.9913574 L224.019219,82.9913574 C223.669179,82.9913574 223.417352,82.8537672 223.267515,82.5773246 C222.840668,82.0989148 222.484332,81.7290623 222.19599,81.4652426 C221.907648,81.201423 221.488355,80.9742098 220.936854,80.7861279 C220.385352,80.5980459 219.696605,80.5033738 218.869352,80.5033738 C217.640435,80.5033738 216.69986,80.7621443 216.048887,81.2771607 C215.396654,81.792177 215.070538,82.476341 215.070538,83.3309148 C215.070538,83.8585541 215.209043,84.3054066 215.484794,84.6689475 C215.760545,85.0337508 216.286864,85.3733082 217.063751,85.6863574 C217.840638,86.0006689 218.994007,86.3212918 220.523857,86.6469639 C222.904884,87.1506197 224.589608,87.866341 225.580548,88.7966525 C226.570229,89.7257016 227.06507,90.9198328 227.06507,92.3777836 C227.06507,93.4583082 226.757841,94.4378492 226.143382,95.3176689 C225.530183,96.1974885 224.614791,96.8879639 223.399724,97.3903574 C222.183399,97.8927508 220.735392,98.1439475 219.056963,98.1439475 C217.32691,98.1439475 215.866312,97.8624557 214.676429,97.2969475" id="Fill-68" fill="#A1A3A6"></path>
                    <path d="M242.838521,93.7910492 C243.779096,92.772377 244.285268,91.309377 244.360817,89.3995246 C244.385999,89.1483279 244.398591,88.6711803 244.398591,87.9668197 C244.398591,87.2637213 244.385999,86.7865738 244.360817,86.5341148 C244.285268,84.6255246 243.779096,83.1612623 242.838521,82.1425902 C241.897946,81.1251803 240.626219,80.6164754 239.022079,80.6164754 C237.41794,80.6164754 236.146212,81.1251803 235.205637,82.1425902 C234.265062,83.1612623 233.757631,84.6255246 233.683342,86.5341148 L233.645567,87.9668197 L233.683342,89.3995246 C233.757631,91.309377 234.265062,92.772377 235.205637,93.7910492 C236.146212,94.808459 237.41794,95.3171639 239.022079,95.3171639 C240.626219,95.3171639 241.897946,94.808459 242.838521,93.7910492 M232.649591,95.8069344 C231.157514,94.2492623 230.360481,92.1765738 230.261009,89.5876066 L230.223235,87.9668197 L230.261009,86.3460328 C230.360481,83.7583279 231.168847,81.6856393 232.686106,80.1267049 C234.203365,78.5690328 236.314936,77.7889344 239.022079,77.7889344 C241.729222,77.7889344 243.840793,78.5690328 245.356793,80.1267049 C246.874052,81.6856393 247.682418,83.7583279 247.783149,86.3460328 C247.832255,86.898918 247.857438,87.4391803 247.857438,87.9668197 C247.857438,88.494459 247.832255,89.0347213 247.783149,89.5876066 C247.682418,92.1765738 246.886644,94.2492623 245.395827,95.8069344 C243.90375,97.3658689 241.779587,98.1447049 239.022079,98.1447049 C236.264571,98.1447049 234.140408,97.3658689 232.649591,95.8069344" id="Fill-70" fill="#A1A3A6"></path>
                    <path d="M252.50151,97.5225197 C252.337822,97.3596836 252.257238,97.1526672 252.257238,96.9002082 L252.257238,71.8714213 C252.257238,71.5949787 252.337822,71.3816508 252.50151,71.2301754 C252.663939,71.0799623 252.870437,71.0054869 253.122264,71.0054869 L254.77551,71.0054869 C255.026078,71.0054869 255.232576,71.0862738 255.396264,71.2503721 C255.558693,71.4132082 255.640537,71.6202246 255.640537,71.8714213 L255.640537,96.9002082 C255.640537,97.1526672 255.558693,97.3596836 255.396264,97.5225197 C255.232576,97.686618 255.026078,97.7674049 254.77551,97.7674049 L253.122264,97.7674049 C252.870437,97.7674049 252.663939,97.686618 252.50151,97.5225197" id="Fill-72" fill="#A1A3A6"></path>
                    <path d="M262.672309,95.8262475 C261.369103,94.2799361 260.71687,92.226182 260.71687,89.663723 L260.71687,79.0326738 C260.71687,78.7827393 260.797455,78.575723 260.962402,78.4116246 C261.12483,78.2487885 261.331329,78.1667393 261.581897,78.1667393 L263.31195,78.1667393 C263.561259,78.1667393 263.769016,78.2487885 263.931445,78.4116246 C264.093873,78.575723 264.175717,78.7827393 264.175717,79.0326738 L264.175717,89.4743787 C264.175717,93.2953459 265.830222,95.2039361 269.139232,95.2039361 C270.743372,95.2039361 272.015099,94.6952311 272.955674,93.6778213 C273.896249,92.6604115 274.365907,91.2592639 274.365907,89.4743787 L274.365907,79.0326738 C274.365907,78.7827393 274.446491,78.575723 274.610179,78.4116246 C274.772608,78.2487885 274.979106,78.1667393 275.230933,78.1667393 L276.959727,78.1667393 C277.210295,78.1667393 277.416794,78.2487885 277.580481,78.4116246 C277.74291,78.575723 277.824754,78.7827393 277.824754,79.0326738 L277.824754,96.9004607 C277.824754,97.1516574 277.74291,97.3599361 277.580481,97.5227721 C277.416794,97.6868705 277.210295,97.7676574 276.959727,97.7676574 L275.342996,97.7676574 C275.092428,97.7676574 274.88593,97.6868705 274.722242,97.5227721 C274.559814,97.3599361 274.47797,97.1516574 274.47797,96.9004607 L274.47797,95.2039361 C273.751448,96.1847393 272.899013,96.9193951 271.921923,97.4091656 C270.943574,97.9001984 269.703325,98.1438213 268.199917,98.1438213 C265.817631,98.1438213 263.975515,97.3712967 262.672309,95.8262475" id="Fill-74" fill="#A1A3A6"></path>
                    <path d="M284.780348,91.1715344 L284.780348,81.0693869 L281.810046,81.0693869 C281.558219,81.0693869 281.358016,80.9936492 281.208179,80.8421738 C281.057082,80.6919607 280.982793,80.4912557 280.982793,80.2387967 L280.982793,79.0333049 C280.982793,78.7833705 281.057082,78.5750918 281.208179,78.4109934 C281.358016,78.2481574 281.558219,78.1661082 281.810046,78.1661082 L284.780348,78.1661082 L284.780348,71.8710426 C284.780348,71.6211082 284.855896,71.4128295 285.005734,71.2499934 C285.15683,71.0858951 285.357033,71.0051082 285.607601,71.0051082 L287.262106,71.0051082 C287.511415,71.0051082 287.719172,71.0858951 287.881601,71.2499934 C288.045288,71.4128295 288.127132,71.6211082 288.127132,71.8710426 L288.127132,78.1661082 L292.788454,78.1661082 C293.039023,78.1661082 293.24678,78.2481574 293.410468,78.4109934 C293.571637,78.5750918 293.653481,78.7833705 293.653481,79.0333049 L293.653481,80.2387967 C293.653481,80.4912557 293.571637,80.6919607 293.410468,80.8421738 C293.24678,80.9936492 293.039023,81.0693869 292.788454,81.0693869 L288.127132,81.0693869 L288.127132,90.9077148 C288.127132,92.1889443 288.333631,93.1571246 288.746627,93.8097311 C289.160883,94.4636 289.868518,94.7892721 290.87079,94.7892721 L293.164936,94.7892721 C293.415504,94.7892721 293.616966,94.8713213 293.766803,95.0354197 C293.916641,95.1982557 293.992189,95.4052721 293.992189,95.6564689 L293.992189,96.9010918 C293.992189,97.1522885 293.916641,97.3593049 293.766803,97.522141 C293.616966,97.6862393 293.415504,97.7682885 293.164936,97.7682885 L290.607631,97.7682885 C286.721936,97.7682885 284.780348,95.5693705 284.780348,91.1715344" id="Fill-76" fill="#A1A3A6"></path>
                    <path d="M297.545093,97.5225197 C297.381406,97.3596836 297.300821,97.1526672 297.300821,96.9002082 L297.300821,79.0336836 C297.300821,78.7824869 297.381406,78.5754705 297.545093,78.4113721 C297.707522,78.2485361 297.91402,78.1664869 298.165848,78.1664869 L299.819093,78.1664869 C300.069661,78.1664869 300.27616,78.2485361 300.439848,78.4113721 C300.602276,78.5754705 300.685379,78.7824869 300.685379,79.0336836 L300.685379,96.9002082 C300.685379,97.1526672 300.602276,97.3596836 300.439848,97.5225197 C300.27616,97.686618 300.069661,97.7674049 299.819093,97.7674049 L298.165848,97.7674049 C297.91402,97.7674049 297.707522,97.686618 297.545093,97.5225197 M297.24416,74.2268639 C297.080472,74.0652902 296.999887,73.8570115 296.999887,73.6058148 L296.999887,71.6454705 C296.999887,71.3942738 297.080472,71.1809459 297.24416,71.0054869 C297.406588,70.8300279 297.613087,70.7416672 297.864914,70.7416672 L300.083512,70.7416672 C300.332821,70.7416672 300.546874,70.8300279 300.721894,71.0054869 C300.896914,71.1809459 300.985053,71.3942738 300.985053,71.6454705 L300.985053,73.6058148 C300.985053,73.8570115 300.896914,74.0652902 300.721894,74.2268639 C300.546874,74.3909623 300.332821,74.4730115 300.083512,74.4730115 L297.864914,74.4730115 C297.613087,74.4730115 297.406588,74.3909623 297.24416,74.2268639" id="Fill-78" fill="#A1A3A6"></path>
                    <path d="M317.698072,93.7910492 C318.638647,92.772377 319.14482,91.309377 319.220368,89.3995246 C319.24555,89.1483279 319.258142,88.6711803 319.258142,87.9668197 C319.258142,87.2637213 319.24555,86.7865738 319.220368,86.5341148 C319.14482,84.6255246 318.638647,83.1612623 317.698072,82.1425902 C316.757497,81.1251803 315.48577,80.6164754 313.88163,80.6164754 C312.277491,80.6164754 311.005763,81.1251803 310.065188,82.1425902 C309.124614,83.1612623 308.618441,84.6255246 308.542893,86.5341148 L308.505119,87.9668197 L308.542893,89.3995246 C308.618441,91.309377 309.124614,92.772377 310.065188,93.7910492 C311.005763,94.808459 312.277491,95.3171639 313.88163,95.3171639 C315.48577,95.3171639 316.757497,94.808459 317.698072,93.7910492 M307.509142,95.8069344 C306.017065,94.2492623 305.220032,92.1765738 305.12056,89.5876066 L305.082786,87.9668197 L305.12056,86.3460328 C305.220032,83.7583279 306.029657,81.6856393 307.545657,80.1267049 C309.062916,78.5690328 311.174487,77.7889344 313.88163,77.7889344 C316.588773,77.7889344 318.700345,78.5690328 320.217604,80.1267049 C321.733604,81.6856393 322.541969,83.7583279 322.6427,86.3460328 C322.691806,86.898918 322.718248,87.4391803 322.718248,87.9668197 C322.718248,88.494459 322.691806,89.0347213 322.6427,89.5876066 C322.541969,92.1765738 321.746195,94.2492623 320.255378,95.8069344 C318.763301,97.3658689 316.639139,98.1447049 313.88163,98.1447049 C311.124122,98.1447049 308.999959,97.3658689 307.509142,95.8069344" id="Fill-80" fill="#A1A3A6"></path>
                    <path d="M327.323665,97.5225197 C327.159977,97.3596836 327.079392,97.1526672 327.079392,96.9002082 L327.079392,79.0336836 C327.079392,78.7824869 327.159977,78.5754705 327.323665,78.4113721 C327.486093,78.2485361 327.692592,78.1664869 327.944419,78.1664869 L329.56115,78.1664869 C329.835642,78.1664869 330.049695,78.2422246 330.199532,78.3937 C330.350628,78.5439131 330.424917,78.757241 330.424917,79.0336836 L330.424917,80.6923393 C331.177881,79.7632902 332.047944,79.0463066 333.038884,78.5439131 C334.028565,78.0415197 335.262519,77.7890607 336.742004,77.7890607 C339.148213,77.7890607 341.015512,78.5615852 342.34516,80.1078967 C343.672289,81.6529459 344.337113,83.6953393 344.337113,86.2338148 L344.337113,96.9002082 C344.337113,97.1526672 344.255269,97.3596836 344.092841,97.5225197 C343.929153,97.686618 343.722655,97.7674049 343.473346,97.7674049 L341.743293,97.7674049 C341.491465,97.7674049 341.284967,97.686618 341.122539,97.5225197 C340.958851,97.3596836 340.878266,97.1526672 340.878266,96.9002082 L340.878266,86.4597656 C340.878266,84.6496344 340.440087,83.2421754 339.562469,82.2373885 C338.684851,81.2326016 337.430751,80.7302082 335.801429,80.7302082 C334.197289,80.7302082 332.919266,81.2389131 331.967359,82.256323 C331.014193,83.2737328 330.53824,84.6748803 330.53824,86.4597656 L330.53824,96.9002082 C330.53824,97.1526672 330.456396,97.3596836 330.293967,97.5225197 C330.130279,97.686618 329.923781,97.7674049 329.673213,97.7674049 L327.944419,97.7674049 C327.692592,97.7674049 327.486093,97.686618 327.323665,97.5225197" id="Fill-82" fill="#A1A3A6"></path>
                    <path d="M351.724969,97.2969475 C350.533826,96.730177 349.651172,96.083882 349.074487,95.3555377 C348.497803,94.6271934 348.209461,94.0238164 348.209461,93.5454066 C348.209461,93.2954721 348.296341,93.0998164 348.47262,92.9609639 C348.64764,92.8246361 348.836511,92.7539475 349.036713,92.7539475 L350.61567,92.7539475 C350.765507,92.7539475 350.885125,92.7791934 350.973265,92.8296852 C351.060145,92.880177 351.179763,92.9925213 351.330859,93.1679803 C351.906285,93.872341 352.552222,94.4264885 353.266152,94.8278984 C353.981341,95.2293082 354.939544,95.4300131 356.143278,95.4300131 C357.49559,95.4300131 358.579707,95.1800787 359.395627,94.676423 C360.209029,94.1740295 360.616989,93.4456852 360.616989,92.4901279 C360.616989,91.8627672 360.441969,91.3591115 360.091929,90.9829475 C359.739371,90.6055213 359.156391,90.2672262 358.34173,89.9655377 C357.527069,89.6638492 356.318298,89.3369148 354.714158,88.9847344 C352.533335,88.5075869 350.992152,87.8171115 350.089351,86.9120459 C349.18655,86.0069803 348.73578,84.8380951 348.73578,83.4066525 C348.73578,82.476341 349.011531,81.5775869 349.563032,80.7103902 C350.114534,79.8444557 350.935491,79.1413574 352.025903,78.5998328 C353.116315,78.0595705 354.413225,77.7894393 355.917893,77.7894393 C357.49559,77.7894393 358.842866,78.053259 359.95972,78.5808984 C361.074055,79.1085377 361.915158,79.7258 362.479251,80.4288984 C363.042085,81.1319967 363.324132,81.7227508 363.324132,82.1998984 C363.324132,82.4258492 363.242288,82.6151934 363.079859,82.7654066 C362.917431,82.9156197 362.722265,82.9913574 362.498139,82.9913574 L361.06776,82.9913574 C360.71772,82.9913574 360.467152,82.8537672 360.316055,82.5773246 C359.889208,82.0989148 359.532873,81.7290623 359.244531,81.4652426 C358.956188,81.201423 358.536896,80.9742098 357.985394,80.7861279 C357.433893,80.5980459 356.745145,80.5033738 355.917893,80.5033738 C354.688976,80.5033738 353.748401,80.7621443 353.097428,81.2771607 C352.445195,81.792177 352.119079,82.476341 352.119079,83.3309148 C352.119079,83.8585541 352.257584,84.3054066 352.533335,84.6689475 C352.809085,85.0337508 353.335404,85.3733082 354.112291,85.6863574 C354.889178,86.0006689 356.042547,86.3212918 357.572398,86.6469639 C359.953424,87.1506197 361.639408,87.866341 362.629089,88.7966525 C363.61877,89.7257016 364.11361,90.9198328 364.11361,92.3777836 C364.11361,93.4583082 363.806381,94.4378492 363.191923,95.3176689 C362.578723,96.1974885 361.663331,96.8879639 360.448265,97.3903574 C359.231939,97.8927508 357.783933,98.1439475 356.105504,98.1439475 C354.375451,98.1439475 352.914853,97.8624557 351.724969,97.2969475" id="Fill-84" fill="#A1A3A6"></path>
                    <path d="M88.771999,57.6159443 C88.4987664,57.3420262 88.3627797,56.9784852 88.3627797,56.5215344 L88.3627797,23.9707311 C88.3627797,23.5150426 88.4987664,23.1502393 88.771999,22.8763213 C89.0452316,22.6024033 89.4078628,22.4660754 89.8636701,22.4660754 L91.0233346,22.4660754 C91.4766236,22.4660754 91.8417731,22.6024033 92.1150056,22.8763213 C92.3869791,23.1502393 92.5229658,23.5150426 92.5229658,23.9707311 L92.5229658,26.3640426 C93.7052947,24.8593869 95.0815306,23.7207967 96.6504143,22.9444852 C98.219298,22.1694361 100.095411,21.7819115 102.278753,21.7819115 C107.3707,21.7819115 111.009604,23.9252885 113.192946,28.2107803 C114.283358,26.2504361 115.842168,24.688977 117.8656,23.5264033 C119.887773,22.3638295 122.197029,21.7819115 124.788331,21.7819115 C128.563222,21.7819115 131.632996,23.0707148 133.997653,25.6457967 C136.362311,28.222141 137.54464,31.8802721 137.54464,36.6214525 L137.54464,56.5215344 C137.54464,56.9784852 137.408653,57.3420262 137.135421,57.6159443 C136.863448,57.8886 136.498298,58.0261902 136.04375,58.0261902 L134.885345,58.0261902 C134.429537,58.0261902 134.065647,57.8886 133.793673,57.6159443 C133.520441,57.3420262 133.384454,56.9784852 133.384454,56.5215344 L133.384454,37.3056164 C133.384454,33.1577148 132.53076,30.1925836 130.825889,28.4152721 C129.121019,26.6366984 126.879756,25.7480426 124.105879,25.7480426 C121.650564,25.7480426 119.525142,26.6493213 117.728354,28.4493541 C115.931567,30.2506492 115.033803,33.2031574 115.033803,37.3056164 L115.033803,56.5215344 C115.033803,56.9784852 114.897816,57.3420262 114.625843,57.6159443 C114.35261,57.8886 113.987461,58.0261902 113.534172,58.0261902 L112.374507,58.0261902 C111.9187,58.0261902 111.556069,57.8886 111.282836,57.6159443 C111.009604,57.3420262 110.873617,56.9784852 110.873617,56.5215344 L110.873617,37.3056164 C110.873617,33.2031574 109.985926,30.2506492 108.213062,28.4493541 C106.438939,26.6493213 104.232933,25.7480426 101.596301,25.7480426 C99.1397266,25.7480426 97.0143047,26.6493213 95.2175173,28.4493541 C93.4207299,30.2506492 92.5229658,33.1804361 92.5229658,37.2361902 L92.5229658,56.5215344 C92.5229658,56.9784852 92.3869791,57.3420262 92.1150056,57.6159443 C91.8417731,57.8886 91.4766236,58.0261902 91.0233346,58.0261902 L89.8636701,58.0261902 C89.4078628,58.0261902 89.0452316,57.8886 88.771999,57.6159443" id="Fill-86" fill="#01A68A"></path>
                    <path d="M165.990038,51.4616246 C168.126792,49.2728049 169.195799,46.1271656 169.195799,42.0234443 L169.195799,39.699559 L160.396955,40.9302967 C156.666135,41.4314279 153.846929,42.2973623 151.936819,43.5281 C150.027968,44.7588377 149.072284,46.3101984 149.072284,48.1783951 C149.072284,50.2763295 149.947384,51.8945918 151.698842,53.0344443 C153.449042,54.1742967 155.485065,54.7435918 157.804394,54.7435918 C161.123477,54.7435918 163.852025,53.649182 165.990038,51.4616246 M151.051646,57.3426574 C149.185606,56.4312803 147.696048,55.1992803 146.582972,53.649182 C145.467377,52.1003459 144.912098,50.3899361 144.912098,48.520477 C144.912098,45.5124279 146.128424,43.0496902 148.561075,41.1347885 C150.992467,39.2198869 154.278812,37.9891492 158.417593,37.4425754 L169.195799,35.9379197 L169.195799,33.5446082 C169.195799,31.0376902 168.434022,29.1101656 166.910467,27.7658213 C165.386912,26.421477 163.056251,25.7486738 159.918483,25.7486738 C157.599154,25.7486738 155.700377,26.2043623 154.222151,27.1157393 C152.743925,28.0283787 151.800832,29.1227885 151.391613,30.3977066 C151.210297,30.9455426 150.992467,31.3217066 150.744417,31.5274607 C150.493849,31.7319525 150.163955,31.8341984 149.754736,31.8341984 L148.800311,31.8341984 C148.389832,31.8341984 148.038533,31.6865098 147.742636,31.3898705 C147.446739,31.0944934 147.29942,30.7397885 147.29942,30.3308049 C147.29942,29.3272803 147.752709,28.1533459 148.663065,26.8090016 C149.572161,25.4633951 150.982394,24.2894607 152.892503,23.2859361 C154.802613,22.2849361 157.144606,21.7812803 159.918483,21.7812803 C164.783786,21.7812803 168.241374,22.9451164 170.28747,25.2690016 C172.333566,27.5941492 173.357244,30.4229525 173.357244,33.7491 L173.357244,56.5221656 C173.357244,56.9778541 173.219998,57.3426574 172.948025,57.6153131 C172.674792,57.8892311 172.310902,58.0268213 171.856354,58.0268213 L170.696689,58.0268213 C170.240882,58.0268213 169.878251,57.8892311 169.605018,57.6153131 C169.331786,57.3426574 169.195799,56.9778541 169.195799,56.5221656 L169.195799,53.3071 C168.194786,54.8117557 166.727892,56.0891984 164.796377,57.1369033 C162.862344,58.1858705 160.305038,58.709723 157.121942,58.709723 C154.939859,58.709723 152.915168,58.2540344 151.051646,57.3426574" id="Fill-88" fill="#01A68A"></path>
                    <path d="M183.861336,57.6159443 C183.589363,57.3420262 183.452117,56.9784852 183.452117,56.5215344 L183.452117,24.0376328 C183.452117,23.5832066 183.589363,23.2070426 183.861336,22.9104033 C184.134569,22.6137639 184.4972,22.4660754 184.953007,22.4660754 L186.044678,22.4660754 C186.497967,22.4660754 186.87319,22.6137639 187.169087,22.9104033 C187.464984,23.2070426 187.612303,23.5832066 187.612303,24.0376328 L187.612303,27.1845344 C189.250439,24.0376328 192.341619,22.4660754 196.890878,22.4660754 L199.414187,22.4660754 C199.868735,22.4660754 200.232625,22.6024033 200.505858,22.8763213 C200.77909,23.1502393 200.915077,23.5150426 200.915077,23.9707311 L200.915077,24.9275508 C200.915077,25.3845016 200.77909,25.7480426 200.505858,26.0219607 C200.232625,26.2958787 199.868735,26.4322066 199.414187,26.4322066 L196.480399,26.4322066 C193.751851,26.4322066 191.592433,27.2312393 190.000884,28.825518 C188.408077,30.4223213 187.612303,32.5871574 187.612303,35.3212885 L187.612303,56.5215344 C187.612303,56.9784852 187.464984,57.3420262 187.169087,57.6159443 C186.87319,57.8886 186.497967,58.0261902 186.044678,58.0261902 L184.953007,58.0261902 C184.4972,58.0261902 184.134569,57.8886 183.861336,57.6159443" id="Fill-90" fill="#01A68A"></path>
                    <path d="M206.98575,57.6159443 C206.712518,57.3420262 206.576531,56.9784852 206.576531,56.5215344 L206.576531,10.9766656 C206.576531,10.5222393 206.712518,10.1561738 206.98575,9.88351803 C207.257724,9.6096 207.621614,9.47200984 208.077422,9.47200984 L209.237086,9.47200984 C209.690375,9.47200984 210.055525,9.6096 210.327498,9.88351803 C210.600731,10.1561738 210.736717,10.5222393 210.736717,10.9766656 L210.736717,56.5215344 C210.736717,56.9784852 210.600731,57.3420262 210.327498,57.6159443 C210.055525,57.8886 209.690375,58.0261902 209.237086,58.0261902 L208.077422,58.0261902 C207.621614,58.0261902 207.257724,57.8886 206.98575,57.6159443" id="Fill-92" fill="#01A68A"></path>
                    <path d="M221.583168,57.6159443 C221.309936,57.3420262 221.173949,56.9784852 221.173949,56.5215344 L221.173949,23.9707311 C221.173949,23.5150426 221.309936,23.1502393 221.583168,22.8763213 C221.855142,22.6024033 222.219032,22.4660754 222.67358,22.4660754 L223.834504,22.4660754 C224.287793,22.4660754 224.652943,22.6024033 224.924916,22.8763213 C225.198149,23.1502393 225.334135,23.5150426 225.334135,23.9707311 L225.334135,56.5215344 C225.334135,56.9784852 225.198149,57.3420262 224.924916,57.6159443 C224.652943,57.8886 224.287793,58.0261902 223.834504,58.0261902 L222.67358,58.0261902 C222.219032,58.0261902 221.855142,57.8886 221.583168,57.6159443 M220.832723,14.7383049 C220.559491,14.4643869 220.423504,14.1008459 220.423504,13.6438951 L220.423504,11.0448295 C220.423504,10.5904033 220.559491,10.2142393 220.832723,9.9163377 C221.105956,9.62096066 221.468587,9.47200984 221.924394,9.47200984 L224.515697,9.47200984 C224.968986,9.47200984 225.345467,9.62096066 225.641364,9.9163377 C225.937261,10.2142393 226.08458,10.5904033 226.08458,11.0448295 L226.08458,13.6438951 C226.08458,14.1008459 225.937261,14.4643869 225.641364,14.7383049 C225.345467,15.012223 224.968986,15.1485508 224.515697,15.1485508 L221.924394,15.1485508 C221.468587,15.1485508 221.105956,15.012223 220.832723,14.7383049" id="Fill-94" fill="#01A68A"></path>
                    <path d="M236.111838,57.6159443 C235.838605,57.3420262 235.702618,56.9784852 235.702618,56.5215344 L235.702618,23.9707311 C235.702618,23.5150426 235.838605,23.1502393 236.111838,22.8763213 C236.38507,22.6024033 236.747701,22.4660754 237.203509,22.4660754 L238.363173,22.4660754 C238.816462,22.4660754 239.181612,22.6024033 239.453585,22.8763213 C239.726818,23.1502393 239.862804,23.5150426 239.862804,23.9707311 L239.862804,27.1845344 C241.227708,25.4059607 242.784,24.0616164 244.535459,23.1502393 C246.286917,22.2388623 248.548326,21.7819115 251.323462,21.7819115 C255.779545,21.7819115 259.21321,23.2070426 261.623196,26.0560426 C264.033183,28.9050426 265.239436,32.5871574 265.239436,37.1011246 L265.239436,56.5215344 C265.239436,56.9784852 265.10219,57.3420262 264.830216,57.6159443 C264.556984,57.8886 264.193093,58.0261902 263.738545,58.0261902 L262.578881,58.0261902 C262.124333,58.0261902 261.760442,57.8886 261.48721,57.6159443 C261.215236,57.3420262 261.07799,56.9784852 261.07799,56.5215344 L261.07799,37.4419443 C261.07799,33.7497311 260.178967,30.8767475 258.383439,28.825518 C256.586651,26.7742885 254.005422,25.7480426 250.64101,25.7480426 C247.367256,25.7480426 244.750771,26.7856492 242.796592,28.8596 C240.841153,30.9348131 239.862804,33.7951738 239.862804,37.4419443 L239.862804,56.5215344 C239.862804,56.9784852 239.726818,57.3420262 239.453585,57.6159443 C239.181612,57.8886 238.816462,58.0261902 238.363173,58.0261902 L237.203509,58.0261902 C236.747701,58.0261902 236.38507,57.8886 236.111838,57.6159443" id="Fill-96" fill="#01A68A"></path>
                    <path d="M364.395027,114.835907 L88.4062199,114.835907 C87.8534591,114.835907 87.4052066,114.38653 87.4052066,113.832382 C87.4052066,113.276972 87.8534591,112.827595 88.4062199,112.827595 L364.395027,112.827595 C364.947788,112.827595 365.396041,113.276972 365.396041,113.832382 C365.396041,114.38653 364.947788,114.835907 364.395027,114.835907" id="Fill-98" fill="#A1A3A6"></path>
                    <g id="Group-102" transform="translate(365.149502, 72.426705)">
                        <mask id="mask-4" fill="white">
                            <use xlink:href="#path-3"></use>
                        </mask>
                        <g id="Clip-101"></g>
                        <path d="M6.85310066,6.86095246 C6.75866545,6.76628033 6.71081827,6.64005082 6.71081827,6.48226393 L6.71081827,1.23237869 C6.71081827,1.0745918 6.75866545,0.9471 6.85310066,0.853690164 C6.94753588,0.759018033 7.0734495,0.71105082 7.23084153,0.71105082 L7.56073522,0.71105082 C7.82767209,0.71105082 8.07194452,0.885247541 8.29229336,1.23237869 L9.75540963,3.57393607 L11.2172668,1.23237869 C11.4388748,0.885247541 11.681888,0.71105082 11.9500841,0.71105082 L12.2799777,0.71105082 C12.4373698,0.71105082 12.5620243,0.759018033 12.6564595,0.853690164 C12.7521538,0.9471 12.7987419,1.0745918 12.7987419,1.23237869 L12.7987419,6.48226393 C12.7987419,6.64005082 12.7521538,6.76628033 12.6564595,6.86095246 C12.5620243,6.95562459 12.4373698,7.0035918 12.2799777,7.0035918 L11.9500841,7.0035918 C11.792692,7.0035918 11.6667784,6.95562459 11.5723432,6.86095246 C11.4766488,6.76628033 11.4300608,6.64005082 11.4300608,6.48226393 L11.4300608,3.43129672 L10.4630442,5.01673934 C10.3522402,5.18967377 10.257805,5.31211639 10.1797385,5.38280492 C10.100413,5.45349344 9.99086811,5.4901 9.84984485,5.4901 L9.65971528,5.4901 C9.51869203,5.4901 9.40914718,5.45349344 9.32982159,5.38280492 C9.25175515,5.31211639 9.15731993,5.18967377 9.04777508,5.01673934 L8.07949934,3.43129672 L8.07949934,6.48226393 C8.07949934,6.64005082 8.0329113,6.76628033 7.93847608,6.86095246 C7.84404086,6.95562459 7.71812724,7.0035918 7.56073522,7.0035918 L7.23084153,7.0035918 C7.0734495,7.0035918 6.94753588,6.95562459 6.85310066,6.86095246 M3.03036312,6.86095246 C2.93592791,6.76628033 2.88933987,6.64005082 2.88933987,6.48226393 L2.88933987,2.03646066 L1.66168206,2.03646066 C1.50429003,2.03646066 1.37963555,1.98849344 1.28520033,1.89382131 C1.18950598,1.79914918 1.14291794,1.67418197 1.14291794,1.51639508 L1.14291794,1.23237869 C1.14291794,1.0745918 1.18950598,0.9471 1.28520033,0.853690164 C1.37963555,0.759018033 1.50429003,0.71105082 1.66168206,0.71105082 L5.4844196,0.71105082 C5.64181163,0.71105082 5.76772525,0.759018033 5.86216047,0.853690164 C5.95659568,0.9471 6.00318372,1.0745918 6.00318372,1.23237869 L6.00318372,1.51639508 C6.00318372,1.67418197 5.95659568,1.79914918 5.86216047,1.89382131 C5.76772525,1.98849344 5.64181163,2.03646066 5.4844196,2.03646066 L4.25676179,2.03646066 L4.25676179,6.48226393 C4.25676179,6.64005082 4.21017375,6.76628033 4.11573854,6.86095246 C4.02130332,6.95562459 3.8953897,7.0035918 3.73799767,7.0035918 L3.40810399,7.0035918 C3.25071196,7.0035918 3.12479834,6.95562459 3.03036312,6.86095246" id="Fill-100" fill="#A1A3A6" mask="url(#mask-4)"></path>
                    </g>
                </g>
            </g>
        </g>
    </g>
</svg>