<?xml version="1.0" encoding="UTF-8"?>
<svg width="223px" height="61px" viewBox="0 0 223 61" version="1.1" xmlns="http://www.w3.org/2000/svg" xmlns:xlink="http://www.w3.org/1999/xlink">
    <!-- Generator: Sketch 52.5 (67469) - http://www.bohemiancoding.com/sketch -->
    <title>Logo</title>
    <desc>Created with Sketch.</desc>
    <g id="Global_Objects" stroke="none" stroke-width="1" fill="none" fill-rule="evenodd">
        <g id="Global_Nav" transform="translate(-149.000000, -14.000000)">
            <g id="Nav_Open">
                <g transform="translate(96.000000, 14.000000)">
                    <g id="Logo" transform="translate(53.000000, 0.000000)">
                        <path d="M52.7321334,55.405896 C51.8421352,54.5005914 51.3741154,53.2317106 51.3300759,51.6000616 L51.3080562,50.7016245 L51.3300759,49.8035914 C51.3741154,48.1723464 51.8421352,46.9034656 52.7321334,45.997353 C53.622532,45.0920483 54.8612429,44.6387901 56.4486666,44.6387901 C57.517225,44.6387901 58.4180329,44.8298695 59.1526917,45.2116245 C59.8873506,45.5933795 60.4358425,46.0684523 60.7993686,46.637247 C61.1624943,47.2060417 61.3594709,47.7748364 61.3890975,48.3436311 C61.4035104,48.4785583 61.3558677,48.5985384 61.2441675,48.7031675 C61.1336684,48.8082007 61.0107582,48.8603132 60.8774386,48.8603132 L59.89776,48.8603132 C59.7500275,48.8603132 59.6383273,48.8267834 59.5646612,48.7593199 C59.4897941,48.6918563 59.4157276,48.5686444 59.3420616,48.3888762 C59.0750221,47.6552603 58.7070921,47.1349424 58.2402734,46.8283265 C57.772654,46.5217106 57.1833255,46.3677967 56.4706864,46.3677967 C55.5362483,46.3677967 54.7939826,46.6598695 54.2454907,47.2432073 C53.696198,47.827353 53.399532,48.7181146 53.3554925,49.915896 L53.3330724,50.7016245 L53.3554925,51.487353 C53.399532,52.6855384 53.696198,53.5763 54.2454907,54.1600417 C54.7939826,54.7437834 55.5362483,55.0358563 56.4706864,55.0358563 C57.1973381,55.0358563 57.7910706,54.8823464 58.2510831,54.5749225 C58.7110957,54.2683066 59.0750221,53.7479887 59.3420616,53.0147768 C59.4157276,52.8350086 59.4897941,52.7113927 59.5646612,52.6439291 C59.6383273,52.5768695 59.7500275,52.5433397 59.89776,52.5433397 L60.8774386,52.5433397 C61.0107582,52.5433397 61.1336684,52.5954523 61.2441675,52.7000815 C61.3558677,52.8055185 61.4035104,52.9250947 61.3890975,53.0596179 C61.3594709,53.6134656 61.1624943,54.1749887 60.7993686,54.7437834 C60.4358425,55.3129821 59.8873506,55.7916907 59.1526917,56.1807172 C58.4180329,56.5701477 57.517225,56.7644589 56.4486666,56.7644589 C54.8612429,56.7644589 53.622532,56.3120086 52.7321334,55.405896" id="Fill-1" fill="#919395"></path>
                        <path d="M69.8896813,54.1598397 C70.5130404,53.5167139 70.8249201,52.5803033 70.8249201,51.3526278 L70.8249201,50.724045 L68.2205844,51.1058 C67.1528268,51.2560781 66.3445018,51.5101775 65.7948088,51.8693099 C65.2455162,52.2288464 64.9720709,52.6780649 64.9720709,53.2165616 C64.9720709,53.8310053 65.2198932,54.3024424 65.7171391,54.6312768 C66.2147855,54.9605152 66.804114,55.1253364 67.4871266,55.1253364 C68.4656041,55.1253364 69.2675233,54.8037735 69.8896813,54.1598397 M65.0277208,56.3158464 C64.4111679,56.016502 63.9223294,55.6080848 63.5584031,55.0914026 C63.1944767,54.5751245 63.013114,54.0022901 63.013114,53.3741113 C63.013114,52.3855881 63.4142738,51.5776411 64.2153923,50.9486543 C65.0161104,50.3200715 66.1070889,49.900747 67.4871266,49.6910848 L70.8249201,49.2196477 L70.8249201,48.5684424 C70.8249201,47.0268795 69.9413276,46.255694 68.1765449,46.255694 C67.4939327,46.255694 66.94464,46.394257 66.5294677,46.6705748 C66.113895,46.9477007 65.8096221,47.2741113 65.6174497,47.6477868 C65.5577962,47.7976609 65.4941391,47.8982503 65.4280799,47.9507669 C65.3608196,48.0036874 65.268737,48.0299457 65.1498303,48.0299457 L64.2814515,48.0299457 C64.148132,48.0299457 64.0328285,47.9814689 63.9367424,47.8833033 C63.8398555,47.7867536 63.7926131,47.6704093 63.7926131,47.5358861 C63.7926131,47.1912967 63.9511553,46.7909589 64.2710422,46.3340649 C64.589728,45.8779788 65.0833707,45.4808728 65.7507693,45.1443629 C66.4181679,44.807045 67.2345,44.6389921 68.1985646,44.6389921 C69.8600548,44.6389921 71.0507226,45.0284225 71.7709686,45.8064755 C72.4900135,46.5853364 72.8503366,47.5581046 72.8503366,48.7255881 L72.8503366,56.0237735 C72.8503366,56.1732437 72.8010925,56.2968596 72.7054066,56.3942172 C72.6085197,56.4915748 72.4864102,56.5400517 72.3382774,56.5400517 L71.3589991,56.5400517 C71.2100655,56.5400517 71.0919596,56.4915748 71.0026795,56.3942172 C70.9133995,56.2968596 70.8689596,56.1732437 70.8689596,56.0237735 L70.8689596,55.0356543 C70.542667,55.5297139 70.0682415,55.9413629 69.4452828,56.2710053 C68.8219237,56.5998397 68.0212056,56.764257 67.0415269,56.764257 C66.3144749,56.764257 65.6434731,56.6147868 65.0277208,56.3158464" id="Fill-3" fill="#919395"></path>
                        <g id="Group-7" transform="translate(75.667864, 44.243583)">
                            <polygon id="Clip-6" points="0.208346858 0.395166887 10.6016682 0.395166887 10.6016682 16.5629139 0.208346858 16.5629139"></polygon>
                            <path d="M7.75231275,9.75886887 C8.24195189,9.08544503 8.50899138,8.20195497 8.55423196,7.10920662 C8.56864488,6.9601404 8.57625171,6.74239868 8.57625171,6.45800132 C8.57625171,3.5837298 7.522907,2.14679603 5.41581724,2.14679603 C4.37688546,2.14679603 3.59418348,2.49461722 3.06811167,3.19066358 C2.54083878,3.88711391 2.26338995,4.70677616 2.23336302,5.6500543 C2.21814937,5.8148755 2.21134327,6.1061404 2.21134327,6.5254649 C2.21134327,6.94519338 2.21814937,7.23645828 2.23336302,7.40127947 C2.26338995,8.31466358 2.5484456,9.10443179 3.09013142,9.77058411 C3.63181724,10.4367364 4.40691239,10.7696106 5.41581724,10.7696106 C6.48397522,10.7696106 7.26267361,10.4326967 7.75231275,9.75886887 M0.35327684,16.4280675 C0.256389946,16.3387894 0.208346858,16.2111338 0.208346858,16.0463126 L0.208346858,1.1360543 C0.208346858,0.97204106 0.256389946,0.84438543 0.35327684,0.754299338 C0.449363016,0.664617219 0.571072172,0.619372185 0.720005745,0.619372185 L1.65444381,0.619372185 C1.81779031,0.619372185 1.94430377,0.664617219 2.03278312,0.754299338 C2.1220632,0.84438543 2.16610269,0.97204106 2.16610269,1.1360543 L2.16610269,2.12457748 C3.02687469,0.97204106 4.25117271,0.395166887 5.83859641,0.395166887 C7.39599318,0.395166887 8.56464129,0.892862252 9.34374004,1.88865695 C10.1220381,2.88404768 10.5344079,4.15292848 10.5784474,5.69449139 C10.593661,5.85971656 10.6016682,6.11421987 10.6016682,6.45800132 C10.6016682,6.80259073 10.593661,7.05709404 10.5784474,7.22151126 C10.5344079,8.7489351 10.1220381,10.0137762 9.34374004,11.0164384 C8.56464129,12.0199086 7.39599318,12.5208358 5.83859641,12.5208358 C4.25117271,12.5208358 3.04889443,11.952445 2.23336302,10.8144517 L2.23336302,16.0463126 C2.23336302,16.1961868 2.18531993,16.3198026 2.08843303,16.4171603 C1.99234686,16.5145179 1.86943662,16.5629947 1.72170413,16.5629947 L0.720005745,16.5629947 C0.571072172,16.5629947 0.449363016,16.5181536 0.35327684,16.4280675" id="Fill-5" fill="#919395"></path>
                        </g>
                        <path d="M88.9947359,56.3943384 C88.8986497,56.2969808 88.8506066,56.1733649 88.8506066,56.0238947 L88.8506066,45.3795967 C88.8506066,45.2305305 88.8986497,45.1069146 88.9947359,45.009153 C89.0916228,44.9121993 89.2137323,44.8633185 89.3622655,44.8633185 L90.3419442,44.8633185 C90.4896767,44.8633185 90.6117862,44.9121993 90.7086731,45.009153 C90.8047592,45.1069146 90.8540034,45.2305305 90.8540034,45.3795967 L90.8540034,56.0238947 C90.8540034,56.1733649 90.8047592,56.2969808 90.7086731,56.3943384 C90.6117862,56.491696 90.4896767,56.5401728 90.3419442,56.5401728 L89.3622655,56.5401728 C89.2137323,56.5401728 89.0916228,56.491696 88.9947359,56.3943384 M88.8169765,42.5166364 C88.7200896,42.4196828 88.6720465,42.2960669 88.6720465,42.1461927 L88.6720465,40.9787093 C88.6720465,40.8288351 88.7200896,40.7015834 88.8169765,40.5969543 C88.9130627,40.4923252 89.0359729,40.4394046 89.1837054,40.4394046 L90.4972835,40.4394046 C90.6454163,40.4394046 90.7711291,40.4923252 90.8760232,40.5969543 C90.9797162,40.7015834 91.0313625,40.8288351 91.0313625,40.9787093 L91.0313625,42.1461927 C91.0313625,42.2960669 90.9797162,42.4196828 90.8760232,42.5166364 C90.7711291,42.614398 90.6454163,42.6628748 90.4972835,42.6628748 L89.1837054,42.6628748 C89.0359729,42.6628748 88.9130627,42.614398 88.8169765,42.5166364" id="Fill-8" fill="#919395"></path>
                        <path d="M94.9705754,52.6106417 L94.9705754,46.5922444 L93.2121984,46.5922444 C93.0632648,46.5922444 92.9451589,46.5474033 92.8558788,46.4577212 C92.7665987,46.3680391 92.7225592,46.2484629 92.7225592,46.0981848 L92.7225592,45.3799199 C92.7225592,45.2304497 92.7665987,45.1068338 92.8558788,45.0090722 C92.9451589,44.9121185 93.0632648,44.8632377 93.2121984,44.8632377 L94.9705754,44.8632377 L94.9705754,41.1135556 C94.9705754,40.9636815 95.0146149,40.8400656 95.103895,40.7427079 C95.1923743,40.6453503 95.3116813,40.5968735 95.4602145,40.5968735 L96.4386921,40.5968735 C96.5876257,40.5968735 96.7097352,40.6453503 96.8066221,40.7427079 C96.9027083,40.8400656 96.9507513,40.9636815 96.9507513,41.1135556 L96.9507513,44.8632377 L99.7104264,44.8632377 C99.8581589,44.8632377 99.9814695,44.9121185 100.077155,45.0090722 C100.174443,45.1068338 100.222486,45.2304497 100.222486,45.3799199 L100.222486,46.0981848 C100.222486,46.2484629 100.174443,46.3680391 100.077155,46.4577212 C99.9814695,46.5474033 99.8581589,46.5922444 99.7104264,46.5922444 L96.9507513,46.5922444 L96.9507513,52.4530921 C96.9507513,53.216602 97.0736616,53.7930722 97.318281,54.1820987 C97.5633007,54.5715291 97.9820763,54.7658404 98.5754084,54.7658404 L99.9334264,54.7658404 C100.081159,54.7658404 100.200466,54.8151252 100.289746,54.9124828 C100.377825,55.0094364 100.423066,55.1334563 100.423066,55.2825225 L100.423066,56.0238139 C100.423066,56.1732841 100.377825,56.2969 100.289746,56.3942576 C100.200466,56.4916152 100.081159,56.5400921 99.9334264,56.5400921 L98.4200691,56.5400921 C96.1200063,56.5400921 94.9705754,55.2304099 94.9705754,52.6106417" id="Fill-10" fill="#919395"></path>
                        <path d="M108.43385,54.1598397 C109.057209,53.5167139 109.369089,52.5803033 109.369089,51.3526278 L109.369089,50.724045 L106.764753,51.1058 C105.696996,51.2560781 104.888671,51.5101775 104.338978,51.8693099 C103.789685,52.2288464 103.51624,52.6780649 103.51624,53.2165616 C103.51624,53.8310053 103.763662,54.3024424 104.261308,54.6312768 C104.758954,54.9605152 105.348283,55.1253364 106.031295,55.1253364 C107.009773,55.1253364 107.811692,54.8037735 108.43385,54.1598397 M103.57189,56.3158464 C102.955337,56.016502 102.466498,55.6080848 102.102572,55.0914026 C101.738645,54.5751245 101.557283,54.0022901 101.557283,53.3741113 C101.557283,52.3855881 101.958443,51.5776411 102.759561,50.9486543 C103.560279,50.3200715 104.651258,49.900747 106.031295,49.6910848 L109.369089,49.2196477 L109.369089,48.5684424 C109.369089,47.0268795 108.485496,46.255694 106.720714,46.255694 C106.038101,46.255694 105.488809,46.394257 105.073636,46.6705748 C104.658064,46.9477007 104.353791,47.2741113 104.161618,47.6477868 C104.101965,47.7976609 104.038308,47.8982503 103.972249,47.9507669 C103.904988,48.0036874 103.812906,48.0299457 103.693999,48.0299457 L102.82562,48.0299457 C102.692301,48.0299457 102.576997,47.9814689 102.480911,47.8833033 C102.384024,47.7867536 102.336782,47.6704093 102.336782,47.5358861 C102.336782,47.1912967 102.495324,46.7909589 102.815211,46.3340649 C103.133897,45.8779788 103.627539,45.4808728 104.294938,45.1443629 C104.962337,44.807045 105.778669,44.6389921 106.742733,44.6389921 C108.404224,44.6389921 109.594891,45.0284225 110.315137,45.8064755 C111.034182,46.5853364 111.394505,47.5581046 111.394505,48.7255881 L111.394505,56.0237735 C111.394505,56.1732437 111.345261,56.2968596 111.249575,56.3942172 C111.152689,56.4915748 111.030579,56.5400517 110.882446,56.5400517 L109.903168,56.5400517 C109.754234,56.5400517 109.636128,56.4915748 109.546848,56.3942172 C109.457568,56.2968596 109.413128,56.1732437 109.413128,56.0237735 L109.413128,55.0356543 C109.086836,55.5297139 108.61241,55.9413629 107.989051,56.2710053 C107.366092,56.5998397 106.565374,56.764257 105.585696,56.764257 C104.858644,56.764257 104.187642,56.6147868 103.57189,56.3158464" id="Fill-12" fill="#919395"></path>
                        <path d="M114.565309,56.3943384 C114.468422,56.2969808 114.420379,56.1733649 114.420379,56.0238947 L114.420379,41.1132325 C114.420379,40.9488152 114.468422,40.8211596 114.565309,40.7318815 C114.661395,40.6413914 114.783104,40.5969543 114.932038,40.5969543 L115.911717,40.5969543 C116.059449,40.5969543 116.181559,40.6454311 116.278446,40.7427887 C116.374532,40.8401464 116.423376,40.9637623 116.423376,41.1132325 L116.423376,56.0238947 C116.423376,56.1733649 116.374532,56.2969808 116.278446,56.3943384 C116.181559,56.491696 116.059449,56.5401728 115.911717,56.5401728 L114.932038,56.5401728 C114.783104,56.5401728 114.661395,56.491696 114.565309,56.3943384" id="Fill-14" fill="#919395"></path>
                        <path d="M126.158907,56.2596132 C125.453875,55.9226993 124.931806,55.5373086 124.5899,55.1030371 C124.248794,54.6691695 124.077841,54.3096331 124.077841,54.0252358 C124.077841,53.8757656 124.129887,53.7598252 124.23358,53.6770106 C124.337273,53.595004 124.448573,53.5537987 124.56748,53.5537987 L125.501918,53.5537987 C125.591198,53.5537987 125.661261,53.5687457 125.714108,53.5986397 C125.766155,53.6285338 125.836218,53.6964013 125.925498,53.8006265 C126.266604,54.219951 126.648546,54.5495934 127.070925,54.7887457 C127.494505,55.028302 128.062214,55.1478781 128.773652,55.1478781 C129.574771,55.1478781 130.216946,54.9984079 130.698979,54.6986596 C131.181011,54.3997192 131.422027,53.9654477 131.422027,53.396249 C131.422027,53.0221695 131.318334,52.7228252 131.110948,52.4982159 C130.902762,52.2740106 130.558052,52.0712159 130.07602,51.8918517 C129.593988,51.7124874 128.877345,51.5181762 127.928494,51.3081099 C126.636936,51.0241166 125.724918,50.6120636 125.190839,50.0727589 C124.65716,49.5342623 124.390121,48.8378119 124.390121,47.9846199 C124.390121,47.4311762 124.553067,46.8955073 124.87976,46.3792291 C125.205252,45.862547 125.691288,45.4436265 126.337467,45.1216596 C126.982846,44.7996927 127.749934,44.6389113 128.640332,44.6389113 C129.574771,44.6389113 130.372686,44.796057 131.032078,45.1103483 C131.69307,45.4246397 132.189516,45.7914477 132.523415,46.2107722 C132.857715,46.6300967 133.024665,46.9819576 133.024665,47.266355 C133.024665,47.4008781 132.975821,47.5127788 132.880135,47.6028649 C132.782848,47.692547 132.668745,47.7377921 132.535025,47.7377921 L131.689067,47.7377921 C131.481681,47.7377921 131.332747,47.6553815 131.244668,47.4905603 C130.992042,47.2061629 130.780652,46.9851894 130.609699,46.8284477 C130.438745,46.670898 130.190122,46.5363748 129.864631,46.4240702 C129.537938,46.3117656 129.129972,46.2556132 128.640332,46.2556132 C127.91328,46.2556132 127.357182,46.4091232 126.971236,46.7157391 C126.585289,47.0231629 126.392316,47.4311762 126.392316,47.9397788 C126.392316,48.2540702 126.47399,48.5198848 126.636936,48.7372225 C126.800282,48.9541563 127.112562,49.156143 127.572575,49.3431828 C128.031386,49.5306265 128.713999,49.721706 129.619611,49.9160172 C131.028474,50.2153616 132.026169,50.6419576 132.613096,51.1958053 C133.198821,51.749653 133.491483,52.4610503 133.491483,53.3291894 C133.491483,53.9727192 133.310121,54.5568649 132.946194,55.0804146 C132.583069,55.6047722 132.041383,56.0164212 131.322338,56.3157656 C130.602092,56.614706 129.745324,56.7645801 128.751632,56.7645801 C127.727914,56.7645801 126.863539,56.5961232 126.158907,56.2596132" id="Fill-16" fill="#00A589"></path>
                        <path d="M142.827576,54.1711106 C143.383675,53.5651503 143.684345,52.6929715 143.729185,51.5549781 C143.743598,51.4055079 143.751605,51.1211106 143.751605,50.7017861 C143.751605,50.2828656 143.743598,49.9980642 143.729185,49.848594 C143.684345,48.7110046 143.383675,47.8388258 142.827576,47.2324616 C142.271478,46.6260974 141.518002,46.3231172 140.568751,46.3231172 C139.619099,46.3231172 138.866424,46.6260974 138.310325,47.2324616 C137.753426,47.8388258 137.452756,48.7110046 137.408717,49.848594 L137.386697,50.7017861 L137.408717,51.5549781 C137.452756,52.6929715 137.753426,53.5651503 138.310325,54.1711106 C138.866424,54.7774748 139.619099,55.080455 140.568751,55.080455 C141.518002,55.080455 142.271478,54.7774748 142.827576,54.1711106 M136.796968,55.3725278 C135.913375,54.4441967 135.442954,53.2092497 135.3833,51.6672828 L135.36128,50.7017861 L135.3833,49.7358854 C135.442954,48.1947265 135.921383,46.9593755 136.818988,46.0310444 C137.715792,45.1031172 138.966113,44.6389517 140.568751,44.6389517 C142.170587,44.6389517 143.420909,45.1031172 144.318914,46.0310444 C145.215718,46.9593755 145.694948,48.1947265 145.753801,49.7358854 C145.783427,50.0655278 145.798641,50.3870907 145.798641,50.7017861 C145.798641,51.0160775 145.783427,51.3384483 145.753801,51.6672828 C145.694948,53.2092497 145.223325,54.4441967 144.340934,55.3725278 C143.457341,56.3008589 142.200614,56.7642166 140.568751,56.7642166 C138.936487,56.7642166 137.679359,56.3008589 136.796968,55.3725278" id="Fill-18" fill="#00A589"></path>
                        <path d="M148.546946,56.3943384 C148.450059,56.2969808 148.402016,56.1733649 148.402016,56.0238947 L148.402016,41.1132325 C148.402016,40.9488152 148.450059,40.8211596 148.546946,40.7318815 C148.643032,40.6413914 148.765142,40.5969543 148.914075,40.5969543 L149.893354,40.5969543 C150.041086,40.5969543 150.163196,40.6454311 150.260082,40.7427887 C150.356169,40.8401464 150.405413,40.9637623 150.405413,41.1132325 L150.405413,56.0238947 C150.405413,56.1733649 150.356169,56.2969808 150.260082,56.3943384 C150.163196,56.491696 150.041086,56.5401728 149.893354,56.5401728 L148.914075,56.5401728 C148.765142,56.5401728 148.643032,56.491696 148.546946,56.3943384" id="Fill-20" fill="#00A589"></path>
                        <path d="M154.567025,55.3837987 C153.795133,54.463143 153.408786,53.2395073 153.408786,51.7124874 L153.408786,45.3797987 C153.408786,45.2303285 153.45723,45.1071166 153.554117,45.008951 C153.649803,44.9124013 153.773113,44.8631166 153.921646,44.8631166 L154.945364,44.8631166 C155.093097,44.8631166 155.215206,44.9124013 155.312093,45.008951 C155.40858,45.1071166 155.457424,45.2303285 155.457424,45.3797987 L155.457424,51.5997788 C155.457424,53.8757656 156.435901,55.013355 158.394858,55.013355 C159.343709,55.013355 160.097185,54.7103748 160.653284,54.1036066 C161.209382,53.4976464 161.488032,52.6630371 161.488032,51.5997788 L161.488032,45.3797987 C161.488032,45.2303285 161.536075,45.1071166 161.632962,45.008951 C161.729048,44.9124013 161.850758,44.8631166 161.999691,44.8631166 L163.023409,44.8631166 C163.171142,44.8631166 163.294052,44.9124013 163.390138,45.008951 C163.487425,45.1071166 163.535068,45.2303285 163.535068,45.3797987 L163.535068,56.0236927 C163.535068,56.1735669 163.487425,56.2967788 163.390138,56.3941364 C163.294052,56.491898 163.171142,56.5399709 163.023409,56.5399709 L162.06575,56.5399709 C161.918018,56.5399709 161.795108,56.491898 161.699022,56.3941364 C161.602135,56.2967788 161.554092,56.1735669 161.554092,56.0236927 L161.554092,55.013355 C161.123706,55.5966927 160.620054,56.035004 160.041535,56.3270768 C159.462616,56.6187457 158.727957,56.7641762 157.837959,56.7641762 C156.427894,56.7641762 155.338117,56.3040503 154.567025,55.3837987" id="Fill-22" fill="#00A589"></path>
                        <path d="M167.652001,52.6106417 L167.652001,46.5922444 L165.893624,46.5922444 C165.745891,46.5922444 165.626584,46.5474033 165.538505,46.4577212 C165.449225,46.3680391 165.404785,46.2484629 165.404785,46.0981848 L165.404785,45.3799199 C165.404785,45.2304497 165.449225,45.1068338 165.538505,45.0090722 C165.626584,44.9121185 165.745891,44.8632377 165.893624,44.8632377 L167.652001,44.8632377 L167.652001,41.1135556 C167.652001,40.9636815 167.697241,40.8400656 167.78532,40.7427079 C167.875001,40.6453503 167.993106,40.5968735 168.14164,40.5968735 L169.121318,40.5968735 C169.269051,40.5968735 169.39116,40.6453503 169.488047,40.7427079 C169.584133,40.8400656 169.632977,40.9636815 169.632977,41.1135556 L169.632977,44.8632377 L172.391852,44.8632377 C172.540785,44.8632377 172.662895,44.9121185 172.759782,45.0090722 C172.855868,45.1068338 172.903911,45.2304497 172.903911,45.3799199 L172.903911,46.0981848 C172.903911,46.2484629 172.855868,46.3680391 172.759782,46.4577212 C172.662895,46.5474033 172.540785,46.5922444 172.391852,46.5922444 L169.632977,46.5922444 L169.632977,52.4530921 C169.632977,53.216602 169.755087,53.7930722 170.000106,54.1820987 C170.244726,54.5715291 170.663501,54.7658404 171.258035,54.7658404 L172.614852,54.7658404 C172.762584,54.7658404 172.881891,54.8151252 172.971171,54.9124828 C173.060451,55.0094364 173.104491,55.1334563 173.104491,55.2825225 L173.104491,56.0238139 C173.104491,56.1732841 173.060451,56.2969 172.971171,56.3942576 C172.881891,56.4916152 172.762584,56.5400921 172.614852,56.5400921 L171.101494,56.5400921 C168.801431,56.5400921 167.652001,55.2304099 167.652001,52.6106417" id="Fill-24" fill="#00A589"></path>
                        <path d="M175.206616,56.3943384 C175.11053,56.2969808 175.062487,56.1733649 175.062487,56.0238947 L175.062487,45.3795967 C175.062487,45.2305305 175.11053,45.1069146 175.206616,45.009153 C175.303503,44.9121993 175.425612,44.8633185 175.574146,44.8633185 L176.553824,44.8633185 C176.701557,44.8633185 176.823666,44.9121993 176.920553,45.009153 C177.016639,45.1069146 177.065883,45.2305305 177.065883,45.3795967 L177.065883,56.0238947 C177.065883,56.1733649 177.016639,56.2969808 176.920553,56.3943384 C176.823666,56.491696 176.701557,56.5401728 176.553824,56.5401728 L175.574146,56.5401728 C175.425612,56.5401728 175.303503,56.491696 175.206616,56.3943384 M175.028857,42.5166364 C174.93197,42.4196828 174.883927,42.2960669 174.883927,42.1461927 L174.883927,40.9787093 C174.883927,40.8288351 174.93197,40.7015834 175.028857,40.5969543 C175.124943,40.4923252 175.247853,40.4394046 175.395986,40.4394046 L176.709564,40.4394046 C176.857296,40.4394046 176.983009,40.4923252 177.087903,40.5969543 C177.191596,40.7015834 177.243243,40.8288351 177.243243,40.9787093 L177.243243,42.1461927 C177.243243,42.2960669 177.191596,42.4196828 177.087903,42.5166364 C176.983009,42.614398 176.857296,42.6628748 176.709564,42.6628748 L175.395986,42.6628748 C175.247853,42.6628748 175.124943,42.614398 175.028857,42.5166364" id="Fill-26" fill="#00A589"></path>
                        <path d="M187.135274,54.1711106 C187.691373,53.5651503 187.992043,52.6929715 188.036883,51.5549781 C188.051696,51.4055079 188.059303,51.1211106 188.059303,50.7017861 C188.059303,50.2828656 188.051696,49.9980642 188.036883,49.848594 C187.992043,48.7110046 187.691373,47.8388258 187.135274,47.2324616 C186.579176,46.6260974 185.8257,46.3231172 184.876849,46.3231172 C183.926797,46.3231172 183.174122,46.6260974 182.618023,47.2324616 C182.061124,47.8388258 181.760454,48.7110046 181.716414,49.848594 L181.694395,50.7017861 L181.716414,51.5549781 C181.760454,52.6929715 182.061124,53.5651503 182.618023,54.1711106 C183.174122,54.7774748 183.926797,55.080455 184.876849,55.080455 C185.8257,55.080455 186.579176,54.7774748 187.135274,54.1711106 M181.104666,55.3725278 C180.221073,54.4441967 179.750651,53.2092497 179.690998,51.6672828 L179.668978,50.7017861 L179.690998,49.7358854 C179.750651,48.1947265 180.22908,46.9593755 181.126685,46.0310444 C182.02349,45.1031172 183.273811,44.6389517 184.876849,44.6389517 C186.478285,44.6389517 187.728606,45.1031172 188.626612,46.0310444 C189.523416,46.9593755 190.002646,48.1947265 190.061499,49.7358854 C190.091125,50.0655278 190.106339,50.3870907 190.106339,50.7017861 C190.106339,51.0160775 190.091125,51.3384483 190.061499,51.6672828 C190.002646,53.2092497 189.531023,54.4441967 188.648632,55.3725278 C187.765439,56.3008589 186.508312,56.7642166 184.876849,56.7642166 C183.244185,56.7642166 181.987457,56.3008589 181.104666,55.3725278" id="Fill-28" fill="#00A589"></path>
                        <path d="M192.831783,56.3943384 C192.735697,56.2969808 192.687654,56.1733649 192.687654,56.0238947 L192.687654,45.3795967 C192.687654,45.2305305 192.735697,45.1069146 192.831783,45.009153 C192.92867,44.9121993 193.05078,44.8633185 193.199313,44.8633185 L194.156171,44.8633185 C194.319117,44.8633185 194.446031,44.9081596 194.53411,44.9978417 C194.62379,45.0879278 194.66783,45.2155834 194.66783,45.3795967 L194.66783,46.3681199 C195.11343,45.8142722 195.629092,45.3872722 196.214817,45.0879278 C196.800543,44.7885834 197.531598,44.6387093 198.407184,44.6387093 C199.831261,44.6387093 200.936652,45.0992391 201.722957,46.0194907 C202.509663,46.9405503 202.902415,48.1565106 202.902415,49.6689874 L202.902415,56.0238947 C202.902415,56.1733649 202.854372,56.2969808 202.757485,56.3943384 C202.661399,56.491696 202.538489,56.5401728 202.390356,56.5401728 L201.366638,56.5401728 C201.218105,56.5401728 201.095995,56.491696 200.999909,56.3943384 C200.903022,56.2969808 200.854979,56.1733649 200.854979,56.0238947 L200.854979,49.8035106 C200.854979,48.7257093 200.595947,47.8874642 200.076281,47.2883715 C199.556615,46.6896828 198.81515,46.3903384 197.850284,46.3903384 C196.901433,46.3903384 196.144755,46.6937225 195.581049,47.2996828 C195.016543,47.906047 194.73509,48.7406563 194.73509,49.8035106 L194.73509,56.0238947 C194.73509,56.1733649 194.687047,56.2969808 194.59016,56.3943384 C194.494074,56.491696 194.371164,56.5401728 194.223431,56.5401728 L193.199313,56.5401728 C193.05078,56.5401728 192.92867,56.491696 192.831783,56.3943384" id="Fill-30" fill="#00A589"></path>
                        <path d="M207.275417,56.2596132 C206.570785,55.9226993 206.047516,55.5373086 205.70641,55.1030371 C205.364503,54.6691695 205.194751,54.3096331 205.194751,54.0252358 C205.194751,53.8757656 205.246397,53.7598252 205.35009,53.6770106 C205.453783,53.595004 205.565484,53.5537987 205.68439,53.5537987 L206.618428,53.5537987 C206.708108,53.5537987 206.778171,53.5687457 206.829818,53.5986397 C206.881864,53.6285338 206.952728,53.6964013 207.041207,53.8006265 C207.383114,54.219951 207.764256,54.5495934 208.187836,54.7887457 C208.610214,55.028302 209.177924,55.1478781 209.890563,55.1478781 C210.691281,55.1478781 211.332656,54.9984079 211.814688,54.6986596 C212.296721,54.3997192 212.538137,53.9654477 212.538137,53.396249 C212.538137,53.0221695 212.434044,52.7228252 212.226658,52.4982159 C212.018471,52.2740106 211.673762,52.0712159 211.19173,51.8918517 C210.709697,51.7124874 209.994256,51.5181762 209.044204,51.3081099 C207.753846,51.0241166 206.841428,50.6120636 206.307749,50.0727589 C205.77287,49.5342623 205.50583,48.8378119 205.50583,47.9846199 C205.50583,47.4311762 205.668776,46.8955073 205.995469,46.3792291 C206.322162,45.862547 206.807798,45.4436265 207.453177,45.1216596 C208.098555,44.7996927 208.866845,44.6389113 209.756843,44.6389113 C210.691281,44.6389113 211.488396,44.796057 212.148988,45.1103483 C212.80878,45.4246397 213.306026,45.7914477 213.640326,46.2107722 C213.973424,46.6300967 214.140374,46.9819576 214.140374,47.266355 C214.140374,47.4008781 214.092731,47.5127788 213.995845,47.6028649 C213.899358,47.692547 213.784455,47.7377921 213.650735,47.7377921 L212.805577,47.7377921 C212.59739,47.7377921 212.449658,47.6553815 212.360378,47.4905603 C212.107751,47.2061629 211.896362,46.9851894 211.726609,46.8284477 C211.555256,46.670898 211.306633,46.5363748 210.98034,46.4240702 C210.653647,46.3117656 210.245681,46.2556132 209.756843,46.2556132 C209.02899,46.2556132 208.472891,46.4091232 208.086945,46.7157391 C207.7018,47.0231629 207.508827,47.4311762 207.508827,47.9397788 C207.508827,48.2540702 207.5905,48.5198848 207.753846,48.7372225 C207.917193,48.9541563 208.227871,49.156143 208.687884,49.3431828 C209.147897,49.5306265 209.830909,49.721706 210.73532,49.9160172 C212.145385,50.2153616 213.142679,50.6419576 213.728805,51.1958053 C214.31453,51.749653 214.608394,52.4610503 214.608394,53.3291894 C214.608394,53.9727192 214.42583,54.5568649 214.062704,55.0804146 C213.698778,55.6047722 213.157092,56.0164212 212.438047,56.3157656 C211.719003,56.614706 210.861433,56.7645801 209.867342,56.7645801 C208.843624,56.7645801 207.979248,56.5961232 207.275417,56.2596132" id="Fill-32" fill="#00A589"></path>
                        <path d="M52.7073111,34.4387417 C52.5447654,34.2759404 52.4642932,34.0590066 52.4642932,33.7871325 L52.4642932,14.3951921 C52.4642932,14.1237219 52.5447654,13.9063841 52.7073111,13.7435828 C52.8686558,13.5803775 53.0836487,13.4991788 53.3526899,13.4991788 L54.0393057,13.4991788 C54.3079467,13.4991788 54.5241406,13.5803775 54.6854853,13.7435828 C54.84683,13.9063841 54.9273022,14.1237219 54.9273022,14.3951921 L54.9273022,15.8212185 C55.6275302,14.9248013 56.4418605,14.2465298 57.3702932,13.7843841 C58.2991262,13.3226424 59.4089215,13.0915695 60.7004799,13.0915695 C63.7151837,13.0915695 65.8691154,14.3685298 67.1606738,16.9212384 C67.8068533,15.753755 68.7288803,14.823 69.9263542,14.1301854 C71.1238282,13.4381788 72.4902537,13.0915695 74.02483,13.0915695 C76.2584332,13.0915695 78.0752627,13.8595232 79.4753183,15.3934106 C80.8741729,16.928106 81.5748013,19.107947 81.5748013,21.9321258 L81.5748013,33.7871325 C81.5748013,34.0590066 81.4939287,34.2759404 81.332584,34.4387417 C81.1712393,34.601947 80.9550454,34.6831457 80.6864045,34.6831457 L79.9993883,34.6831457 C79.7307474,34.6831457 79.5157546,34.601947 79.3544099,34.4387417 C79.1930652,34.2759404 79.1113919,34.0590066 79.1113919,33.7871325 L79.1113919,22.3393311 C79.1113919,19.8686291 78.6073399,18.102457 77.5980346,17.0432384 C76.5887294,15.9844238 75.2623399,15.4544106 73.6204673,15.4544106 C72.1675643,15.4544106 70.908435,15.9908874 69.8454817,17.0638411 C68.7825284,18.1367947 68.2516522,19.8952914 68.2516522,22.3393311 L68.2516522,33.7871325 C68.2516522,34.0590066 68.169979,34.2759404 68.0086343,34.4387417 C67.8472896,34.601947 67.6310957,34.6831457 67.3632555,34.6831457 L66.6766397,34.6831457 C66.4067977,34.6831457 66.1918048,34.601947 66.0304601,34.4387417 C65.8691154,34.2759404 65.7882429,34.0590066 65.7882429,33.7871325 L65.7882429,22.3393311 C65.7882429,19.8952914 65.2629718,18.1367947 64.2132303,17.0638411 C63.1638892,15.9908874 61.857918,15.4544106 60.2973183,15.4544106 C58.8436145,15.4544106 57.5856864,15.9908874 56.5223327,17.0638411 C55.4585786,18.1367947 54.9273022,19.8815563 54.9273022,22.2985298 L54.9273022,33.7871325 C54.9273022,34.0590066 54.84683,34.2759404 54.6854853,34.4387417 C54.5241406,34.601947 54.3079467,34.6831457 54.0393057,34.6831457 L53.3526899,34.6831457 C53.0836487,34.6831457 52.8686558,34.601947 52.7073111,34.4387417" id="Fill-34" fill="#01A68A"></path>
                        <path d="M98.4103804,30.7726013 C99.6751147,29.4689788 100.307682,27.5949457 100.307682,25.150502 L100.307682,23.7652768 L95.1002117,24.4984887 C92.8926318,24.7974291 91.2235348,25.3133033 90.0933212,26.0465152 C88.9631075,26.7801311 88.3974002,27.7036146 88.3974002,28.8169656 C88.3974002,30.0660517 88.9158652,31.0307404 89.9519944,31.7094159 C90.9881237,32.3884954 92.1924038,32.7278331 93.5656354,32.7278331 C95.5305977,32.7278331 97.1444451,32.0758199 98.4103804,30.7726013 M89.5688508,34.2758596 C88.4646605,33.7329192 87.5830698,32.9997073 86.9244792,32.0758199 C86.2646874,31.1527404 85.9351919,30.1343232 85.9351919,29.0209722 C85.9351919,27.2281377 86.6542368,25.7617139 88.0947287,24.6204887 C89.5344199,23.4800715 91.4789639,22.7468596 93.928761,22.420853 L100.307682,21.5248397 L100.307682,20.0988132 C100.307682,18.6053232 99.8572781,17.4576344 98.9556695,16.656555 C98.0528598,15.8554755 96.6740232,15.4543298 94.8167575,15.4543298 C93.4447269,15.4543298 92.3201183,15.726204 91.4461345,16.2691444 C90.5705492,16.8128927 90.0124487,17.464906 89.7706318,18.2243762 C89.6621345,18.5507868 89.5344199,18.7749921 89.3862871,18.8969921 C89.2385546,19.0189921 89.0435797,19.080396 88.8017628,19.080396 L88.2360555,19.080396 C87.9938382,19.080396 87.7844504,18.9923298 87.6098939,18.8157934 C87.434937,18.639257 87.3476587,18.4283828 87.3476587,18.1839788 C87.3476587,17.586906 87.6167,16.8872238 88.1551829,16.0861444 C88.6932655,15.2854689 89.5284145,14.5857868 90.6590285,13.987906 C91.7888418,13.3908331 93.1748849,13.0914887 94.8167575,13.0914887 C97.6969406,13.0914887 99.7431758,13.7843033 100.954262,15.1695285 C102.164948,16.5547536 102.771091,18.2385152 102.771091,20.2212172 L102.771091,33.7870517 C102.771091,34.0589258 102.690219,34.2758596 102.528874,34.4386609 C102.367529,34.6018662 102.151736,34.6834689 101.882695,34.6834689 L101.196079,34.6834689 C100.927438,34.6834689 100.712045,34.6018662 100.5507,34.4386609 C100.388555,34.2758596 100.307682,34.0589258 100.307682,33.7870517 L100.307682,31.8726212 C99.7151506,32.7686344 98.8471722,33.5293166 97.7033463,34.1538596 C96.5599208,34.7784026 95.0453625,35.0906742 93.1624738,35.0906742 C91.8697144,35.0906742 90.6722404,34.819204 89.5688508,34.2758596" id="Fill-36" fill="#01A68A"></path>
                        <path d="M108.988828,34.4387417 C108.826682,34.2759404 108.74581,34.0590066 108.74581,33.7871325 L108.74581,14.4359934 C108.74581,14.1645232 108.826682,13.9407219 108.988828,13.7641854 C109.150173,13.587649 109.365165,13.4991788 109.634207,13.4991788 L110.280386,13.4991788 C110.549427,13.4991788 110.771226,13.587649 110.946984,13.7641854 C111.121541,13.9407219 111.208819,14.1645232 111.208819,14.4359934 L111.208819,16.3100265 C112.178088,14.4359934 114.00853,13.4991788 116.700144,13.4991788 L118.194284,13.4991788 C118.463325,13.4991788 118.678318,13.5803775 118.839262,13.7435828 C119.001808,13.9063841 119.08228,14.1237219 119.08228,14.3951921 L119.08228,14.9656026 C119.08228,15.2374768 119.001808,15.4544106 118.839262,15.6176159 C118.678318,15.7804172 118.463325,15.8620199 118.194284,15.8620199 L116.457927,15.8620199 C114.842878,15.8620199 113.563731,16.3374967 112.622487,17.2876424 C111.679641,18.238596 111.208819,19.5284834 111.208819,21.1581126 L111.208819,33.7871325 C111.208819,34.0590066 111.121541,34.2759404 110.946984,34.4387417 C110.771226,34.601947 110.549427,34.6831457 110.280386,34.6831457 L109.634207,34.6831457 C109.365165,34.6831457 109.150173,34.601947 108.988828,34.4387417" id="Fill-38" fill="#01A68A"></path>
                        <path d="M122.674942,34.4387417 C122.513598,34.2759404 122.433125,34.0590066 122.433125,33.7871325 L122.433125,6.65465563 C122.433125,6.38399338 122.513598,6.16584768 122.674942,6.00304636 C122.836287,5.84024503 123.05128,5.75823841 123.321122,5.75823841 L124.007738,5.75823841 C124.275978,5.75823841 124.491772,5.84024503 124.653117,6.00304636 C124.814461,6.16584768 124.896134,6.38399338 124.896134,6.65465563 L124.896134,33.7871325 C124.896134,34.0590066 124.814461,34.2759404 124.653117,34.4387417 C124.491772,34.601947 124.275978,34.6831457 124.007738,34.6831457 L123.321122,34.6831457 C123.05128,34.6831457 122.836287,34.601947 122.674942,34.4387417" id="Fill-40" fill="#01A68A"></path>
                        <path d="M131.314691,34.4387417 C131.153346,34.2759404 131.072874,34.0590066 131.072874,33.7871325 L131.072874,14.3951921 C131.072874,14.1237219 131.153346,13.9063841 131.314691,13.7435828 C131.476036,13.5803775 131.691029,13.4991788 131.960871,13.4991788 L132.647486,13.4991788 C132.915327,13.4991788 133.13152,13.5803775 133.292865,13.7435828 C133.45421,13.9063841 133.535883,14.1237219 133.535883,14.3951921 L133.535883,33.7871325 C133.535883,34.0590066 133.45421,34.2759404 133.292865,34.4387417 C133.13152,34.601947 132.915327,34.6831457 132.647486,34.6831457 L131.960871,34.6831457 C131.691029,34.6831457 131.476036,34.601947 131.314691,34.4387417 M130.871093,8.89549669 C130.708547,8.73269536 130.628075,8.51576159 130.628075,8.24388742 L130.628075,6.69545695 C130.628075,6.4247947 130.708547,6.20018543 130.871093,6.02364901 C131.032038,5.84711258 131.247431,5.75823841 131.516072,5.75823841 L133.050648,5.75823841 C133.319689,5.75823841 133.541488,5.84711258 133.717246,6.02364901 C133.891802,6.20018543 133.979481,6.4247947 133.979481,6.69545695 L133.979481,8.24388742 C133.979481,8.51576159 133.891802,8.73269536 133.717246,8.89549669 C133.541488,9.05829801 133.319689,9.13990066 133.050648,9.13990066 L131.516072,9.13990066 C131.247431,9.13990066 131.032038,9.05829801 130.871093,8.89549669" id="Fill-42" fill="#01A68A"></path>
                        <path d="M139.914003,34.4387417 C139.752659,34.2759404 139.672187,34.0590066 139.672187,33.7871325 L139.672187,14.3951921 C139.672187,14.1237219 139.752659,13.9063841 139.914003,13.7435828 C140.075348,13.5803775 140.290341,13.4991788 140.560183,13.4991788 L141.246799,13.4991788 C141.515039,13.4991788 141.730833,13.5803775 141.892178,13.7435828 C142.053522,13.9063841 142.135196,14.1237219 142.135196,14.3951921 L142.135196,16.3100265 C142.941519,15.2508079 143.863546,14.4501325 144.900876,13.9063841 C145.936204,13.3634437 147.275806,13.0915695 148.917678,13.0915695 C151.555644,13.0915695 153.587467,13.9407219 155.014747,15.6378146 C156.440425,17.3357152 157.154266,19.5284834 157.154266,22.2173311 L157.154266,33.7871325 C157.154266,34.0590066 157.073393,34.2759404 156.912048,34.4387417 C156.749903,34.601947 156.53491,34.6831457 156.265869,34.6831457 L155.579253,34.6831457 C155.310612,34.6831457 155.095219,34.601947 154.933073,34.4387417 C154.771729,34.2759404 154.690856,34.0590066 154.690856,33.7871325 L154.690856,22.4205298 C154.690856,20.221298 154.159179,18.5100662 153.095826,17.2876424 C152.032872,16.0660265 150.505102,15.4544106 148.513316,15.4544106 C146.575578,15.4544106 145.027389,16.0724901 143.870352,17.3078411 C142.713314,18.544404 142.135196,20.2483642 142.135196,22.4205298 L142.135196,33.7871325 C142.135196,34.0590066 142.053522,34.2759404 141.892178,34.4387417 C141.730833,34.601947 141.515039,34.6831457 141.246799,34.6831457 L140.560183,34.6831457 C140.290341,34.6831457 140.075348,34.601947 139.914003,34.4387417" id="Fill-44" fill="#01A68A"></path>
                        <path d="M0.772052424,29.2405318 C0.618714901,29.2942603 0.454968043,29.2098298 0.407725673,29.0534921 L0.0129716338,27.7446179 C-0.0346710952,27.5882801 0.0534078995,27.4194192 0.207946499,27.3701344 L40.9220614,14.3145185 C41.0766,14.2648298 41.2439501,14.3516841 41.293995,14.5072139 L41.3624564,14.719704 C41.4125013,14.8752338 41.3280255,15.0465185 41.174688,15.100247 L0.772052424,29.2405318 Z" id="Fill-46" fill="#009A9A"></path>
                        <path d="M41.984214,23.9920272 C41.9686,24.1548285 41.8240704,24.2711728 41.663126,24.2509742 L1.02988366,19.0732457 C0.868939318,19.052643 0.746429443,18.9023649 0.757239138,18.7391596 L0.765646679,18.6159477 C0.776856732,18.4527424 0.918183483,18.3307424 1.07992855,18.3448815 L41.8909303,21.8784377 C42.052275,21.8921728 42.1719824,22.0371993 42.1563684,22.2000007 L41.984214,23.9920272 Z" id="Fill-48" fill="#00A59B"></path>
                        <path d="M42.1096865,22.9720344 C42.0984765,23.1352397 41.9567494,23.2552199 41.7954047,23.238657 L1.02724129,19.0672265 C0.865896589,19.0506636 0.743386715,18.9036172 0.754997127,18.7404119 L0.830664991,17.6589748 C0.841875045,17.4957695 0.983201795,17.3765974 1.1445465,17.3943722 L41.8914908,21.8716106 C42.0528355,21.8893854 42.1753454,22.0376437 42.163735,22.200445 L42.1096865,22.9720344 Z" id="Fill-50" fill="#00A19B"></path>
                        <path d="M17.1936203,0.204935762 C17.1455772,0.0485980132 16.9806293,-0.0366403974 16.8268914,0.0154721854 L15.239868,0.553160927 C15.0857298,0.605677483 15.0028555,0.774942384 15.0549022,0.929664238 L28.9990081,42.3890616 C29.0510548,42.5441874 29.2212074,42.6342735 29.3773474,42.5898364 L29.8565772,42.4528894 C30.0127172,42.4080483 30.1011966,42.2436311 30.0531535,42.0872934 L17.1936203,0.204935762 Z" id="Fill-52" fill="#076B6B"></path>
                        <path d="M21.7346129,42.6160543 C21.7238032,42.7792596 21.5820761,42.9028755 21.4203311,42.8903523 L19.5798804,42.7493656 C19.4181354,42.7368424 19.2992287,42.5934318 19.3156434,42.4306305 L23.5442359,0.433140397 C23.5606506,0.270339073 23.705981,0.148339073 23.867726,0.162478146 L24.3297404,0.201663576 C24.4914855,0.215802649 24.6147961,0.360425166 24.603586,0.523630464 L21.7346129,42.6160543 Z" id="Fill-54" fill="#00A59B"></path>
                        <path d="M41.3482837,31.0146219 C41.2766194,31.1616682 41.1004614,31.2190325 40.9571329,31.1422775 L1.86727469,10.2596748 C1.72394614,10.1833238 1.67069838,10.0031517 1.74916876,9.86014503 L2.29766068,8.8586947 C2.37613106,8.71528411 2.55709336,8.66236358 2.69922083,8.74073444 L41.4683914,30.0951781 C41.6109192,30.173549 41.6685709,30.3581649 41.597307,30.5048073 L41.3482837,31.0146219 Z" id="Fill-56" fill="#61C5BE"></path>
                        <path d="M35.7147111,36.4566298 C35.5954041,36.5677225 35.4084364,36.5592391 35.2991384,36.438451 L8.34015996,6.59773576 C8.23086194,6.47694768 8.23766804,6.28546424 8.35497325,6.17275563 L8.90226409,5.64516623 C9.01996966,5.53205364 9.20653698,5.5373053 9.31743645,5.65647748 L36.7148081,35.1223053 C36.8257075,35.2418815 36.8189014,35.4301331 36.6995944,35.5408219 L35.7147111,36.4566298 Z" id="Fill-58" fill="#01A488"></path>
                        <path d="M11.2740312,42.7977212 C11.1379092,42.708847 11.0826596,42.5149397 11.151121,42.3666815 L30.3187117,1.01756887 C30.3875734,0.868906623 30.5601282,0.811946358 30.702656,0.890317219 L32.0622754,1.63928411 C32.2044029,1.71765497 32.2628553,1.90227086 32.1923921,2.04931722 L12.3862287,43.1709927 C12.3153652,43.3180391 12.1456129,43.3657079 12.0094908,43.2772377 L11.2740312,42.7977212 Z" id="Fill-60" fill="#2AB7A9"></path>
                        <path d="M6.83921382,36.9582437 C6.72310969,37.0721642 6.54054596,37.0648927 6.43365009,36.9416808 L5.95321921,36.3874291 C5.84632334,36.2646212 5.85513124,36.0711179 5.97243645,35.9584093 L35.3479822,7.7073298 C35.4648871,7.59421722 35.6550576,7.59704503 35.76916,7.71298543 L35.9805496,7.92709139 C36.0950522,8.04303179 36.0934508,8.23128344 35.9773467,8.34520397 L6.83921382,36.9582437 Z" id="Fill-62" fill="#00A59B"></path>
                        <path d="M21.3011842,20.4791543 L35.3453799,7.6982404 C35.465888,7.58876358 35.6580603,7.59401523 35.772563,7.70995563 L36.1448969,8.08767086 C36.2593996,8.20361126 36.2573978,8.39145894 36.140493,8.5049755 L6.84902262,36.9649093 C6.73211777,37.0784258 6.54915368,37.0707503 6.44185745,36.9479424 L4.91769048,35.1975252 C4.81039425,35.0743132 4.82320575,34.8860616 4.94571562,34.7790086 L21.3011842,20.4791543" id="Fill-64" fill="#00A59B"></path>
                        <path d="M219.4762,45.5245424 C219.420149,45.4683901 219.392525,45.392847 219.392525,45.2987212 L219.392525,42.1695424 C219.392525,42.0758205 219.420149,42.0002775 219.4762,41.9441252 C219.53185,41.8875689 219.606717,41.8592907 219.6996,41.8592907 L219.895376,41.8592907 C220.053517,41.8592907 220.197647,41.9631119 220.328564,42.1695424 L221.194541,43.5648669 L222.060918,42.1695424 C222.191034,41.9631119 222.335564,41.8592907 222.494106,41.8592907 L222.689482,41.8592907 C222.782365,41.8592907 222.856832,41.8875689 222.912882,41.9441252 C222.968932,42.0002775 222.996557,42.0758205 222.996557,42.1695424 L222.996557,45.2987212 C222.996557,45.392847 222.968932,45.4683901 222.912882,45.5245424 C222.856832,45.5810987 222.782365,45.6089728 222.689482,45.6089728 L222.494106,45.6089728 C222.400823,45.6089728 222.326356,45.5810987 222.270306,45.5245424 C222.214255,45.4683901 222.186631,45.392847 222.186631,45.2987212 L222.186631,43.4804364 L221.613717,44.4249265 C221.548458,44.5283437 221.492408,44.6010589 221.445966,44.6434762 C221.399124,44.6858934 221.334266,44.7069 221.250591,44.7069 L221.13849,44.7069 C221.054815,44.7069 220.989557,44.6858934 220.943115,44.6434762 C220.896273,44.6010589 220.840623,44.5283437 220.775365,44.4249265 L220.202451,43.4804364 L220.202451,45.2987212 C220.202451,45.392847 220.174826,45.4683901 220.118776,45.5245424 C220.062726,45.5810987 219.988259,45.6089728 219.895376,45.6089728 L219.6996,45.6089728 C219.606717,45.6089728 219.53185,45.5810987 219.4762,45.5245424 M217.21297,45.5245424 C217.15732,45.4683901 217.129295,45.392847 217.129295,45.2987212 L217.129295,42.6490589 L216.402643,42.6490589 C216.309359,42.6490589 216.234893,42.6207808 216.179243,42.5642245 C216.123192,42.5076682 216.095167,42.4329331 216.095167,42.3388073 L216.095167,42.1695424 C216.095167,42.0758205 216.123192,42.0002775 216.179243,41.9441252 C216.234893,41.8875689 216.309359,41.8592907 216.402643,41.8592907 L218.665873,41.8592907 C218.758756,41.8592907 218.833623,41.8875689 218.889273,41.9441252 C218.945324,42.0002775 218.973349,42.0758205 218.973349,42.1695424 L218.973349,42.3388073 C218.973349,42.4329331 218.945324,42.5076682 218.889273,42.5642245 C218.833623,42.6207808 218.758756,42.6490589 218.665873,42.6490589 L217.939221,42.6490589 L217.939221,45.2987212 C217.939221,45.392847 217.911196,45.4683901 217.855546,45.5245424 C217.799896,45.5810987 217.725029,45.6089728 217.632146,45.6089728 L217.43637,45.6089728 C217.343087,45.6089728 217.26862,45.5810987 217.21297,45.5245424" id="Fill-66" fill="#01A68A"></path>
                    </g>
                </g>
            </g>
        </g>
    </g>
</svg>